<svg width="50" height="50" viewBox="0 0 50 50" fill="none" xmlns="http://www.w3.org/2000/svg">
<rect width="50" height="50" rx="25" fill="url(#paint0_linear_10572_132)"/>
<path d="M9.34 30C8.79 30 8.515 29.73 8.515 29.19C8.515 28.67 8.79 28.41 9.34 28.41H11.02V21.615L9.745 22.38C9.505 22.52 9.285 22.555 9.085 22.485C8.895 22.415 8.75 22.29 8.65 22.11C8.55 21.93 8.52 21.735 8.56 21.525C8.6 21.305 8.74 21.125 8.98 20.985L11.05 19.74C11.25 19.62 11.45 19.52 11.65 19.44C11.85 19.35 12.035 19.305 12.205 19.305C12.415 19.305 12.59 19.365 12.73 19.485C12.87 19.595 12.94 19.78 12.94 20.04V28.41H14.47C15.02 28.41 15.295 28.67 15.295 29.19C15.295 29.73 15.02 30 14.47 30H9.34ZM20.4941 30.15C19.2441 30.15 18.2891 29.68 17.6291 28.74C16.9691 27.79 16.6391 26.44 16.6391 24.69C16.6391 22.92 16.9691 21.575 17.6291 20.655C18.2891 19.735 19.2441 19.275 20.4941 19.275C21.7541 19.275 22.7091 19.735 23.3591 20.655C24.0191 21.575 24.3491 22.915 24.3491 24.675C24.3491 26.435 24.0191 27.79 23.3591 28.74C22.6991 29.68 21.7441 30.15 20.4941 30.15ZM20.4941 28.575C21.1741 28.575 21.6741 28.26 21.9941 27.63C22.3241 27 22.4891 26.015 22.4891 24.675C22.4891 23.335 22.3241 22.365 21.9941 21.765C21.6741 21.155 21.1741 20.85 20.4941 20.85C19.8241 20.85 19.3241 21.155 18.9941 21.765C18.6641 22.365 18.4991 23.335 18.4991 24.675C18.4991 26.015 18.6641 27 18.9941 27.63C19.3241 28.26 19.8241 28.575 20.4941 28.575ZM29.4883 30.15C28.2383 30.15 27.2833 29.68 26.6233 28.74C25.9633 27.79 25.6333 26.44 25.6333 24.69C25.6333 22.92 25.9633 21.575 26.6233 20.655C27.2833 19.735 28.2383 19.275 29.4883 19.275C30.7483 19.275 31.7033 19.735 32.3533 20.655C33.0133 21.575 33.3433 22.915 33.3433 24.675C33.3433 26.435 33.0133 27.79 32.3533 28.74C31.6933 29.68 30.7383 30.15 29.4883 30.15ZM29.4883 28.575C30.1683 28.575 30.6683 28.26 30.9883 27.63C31.3183 27 31.4833 26.015 31.4833 24.675C31.4833 23.335 31.3183 22.365 30.9883 21.765C30.6683 21.155 30.1683 20.85 29.4883 20.85C28.8183 20.85 28.3183 21.155 27.9883 21.765C27.6583 22.365 27.4933 23.335 27.4933 24.675C27.4933 26.015 27.6583 27 27.9883 27.63C28.3183 28.26 28.8183 28.575 29.4883 28.575ZM38.4824 29.52C38.0224 29.52 37.7924 29.285 37.7924 28.815V26.355H35.3774C34.9274 26.355 34.7024 26.135 34.7024 25.695C34.7024 25.255 34.9274 25.035 35.3774 25.035H37.7924V22.65C37.7924 22.19 38.0224 21.96 38.4824 21.96C38.9424 21.96 39.1724 22.19 39.1724 22.65V25.035H41.5874C42.0374 25.035 42.2624 25.255 42.2624 25.695C42.2624 26.135 42.0374 26.355 41.5874 26.355H39.1724V28.815C39.1724 29.285 38.9424 29.52 38.4824 29.52Z" fill="#212529"/>
<defs>
<linearGradient id="paint0_linear_10572_132" x1="-53.5" y1="54" x2="52.5" y2="21" gradientUnits="userSpaceOnUse">
<stop stop-color="#00730C"/>
<stop offset="1" stop-color="#F9F9F9"/>
</linearGradient>
</defs>
</svg>
