<svg width="70" height="56" viewBox="0 0 70 56" fill="none" xmlns="http://www.w3.org/2000/svg">
<path d="M14.4187 22.3713C15.2727 17.003 21.9831 11.2687 27.2294 11.1467C27.5954 11.1467 27.9615 11.0247 28.2055 10.7806C28.4495 10.6586 28.6935 10.5366 28.8155 10.1706C30.6456 6.75441 29.6695 4.07026 26.6194 1.87414C23.0812 -0.688004 17.4689 1.87414 14.6627 4.19227C7.58632 10.0486 0.387919 20.175 0.753939 29.8137C-0.466129 36.2803 -0.222115 43.2344 1.60799 48.9688C2.82805 52.629 6.36625 54.4591 10.0265 54.7031C13.6867 54.9473 21.2511 56.0452 24.5453 53.8492C27.8394 51.6529 28.0835 47.3827 28.4495 43.7227C28.8155 39.6964 29.9136 32.1318 26.4974 28.9597C23.0812 25.9095 13.3206 29.2037 14.4187 22.3713Z" fill="#F6702A"/>
<path d="M54.1244 22.3713C54.9785 17.003 61.6886 11.2687 66.9351 11.1467C67.3011 11.1467 67.6672 11.0247 67.9112 10.7806C68.1554 10.6586 68.3992 10.5366 68.5214 10.1706C70.3515 6.75441 69.3755 4.07026 66.3253 1.87414C62.7871 -0.688004 57.1748 1.87414 54.3684 4.19227C47.292 10.0486 40.0936 20.1752 40.4596 29.8137C39.2396 36.2803 39.4836 43.2344 41.3135 48.9688C42.5336 52.629 46.0718 54.4591 49.7322 54.7031C53.3924 54.9473 60.9568 56.0452 64.251 53.8492C67.545 51.6529 67.7892 47.3827 68.1552 43.7227C68.5212 39.6964 69.6193 32.1318 66.2031 28.9597C62.7869 25.9095 52.9043 29.2037 54.1244 22.3713Z" fill="#F6702A"/>
</svg>
