<svg width="96" height="163" viewBox="0 0 96 163" fill="none" xmlns="http://www.w3.org/2000/svg">
<path d="M41.2151 39.7108C41.2151 39.7108 41.2151 39.7869 41.2151 40.0151C41.2151 40.1672 41.2151 40.4715 41.2911 40.776C41.2911 40.9281 41.3672 41.0804 41.3672 41.2325C41.3672 41.3847 41.4432 41.6131 41.5192 41.7654C41.5952 41.9177 41.6712 42.1461 41.7472 42.3744C41.8233 42.5268 41.8993 42.7551 42.0513 42.9076C42.1273 43.0599 42.2033 43.2883 42.3554 43.4408C42.5074 43.5932 42.5834 43.8216 42.6595 43.9739C42.7355 44.1262 42.8875 44.2787 42.9635 44.431C43.1156 44.5835 43.1916 44.7358 43.2676 44.8121C43.6477 45.2693 43.9518 45.6503 43.9518 45.6503C43.9518 45.6503 43.6477 45.3454 43.1916 44.888C43.0396 44.7355 42.9635 44.6592 42.8115 44.5068C42.6595 44.3543 42.5834 44.202 42.4314 44.0495C42.2794 43.897 42.2034 43.7447 42.0513 43.5162C41.8993 43.3637 41.8233 43.1353 41.6712 42.9828C41.5952 42.7545 41.4432 42.602 41.3672 42.4497C41.2911 42.2213 41.2151 42.069 41.1391 41.8406C41.0631 41.6883 40.9871 41.4599 40.911 41.3076C40.835 41.1553 40.835 40.9271 40.759 40.7748C40.683 40.4703 40.683 40.1661 40.683 39.9378C40.683 39.7096 40.683 39.6336 40.683 39.6336C40.683 39.4814 40.835 39.4057 40.9871 39.406C41.1391 39.4064 41.2151 39.5587 41.2151 39.7108Z" fill="#00730C"/>
<path d="M66.5296 64.9458C67.974 65.0251 69.4183 65.0283 70.8627 65.1076C71.4708 65.1089 72.079 65.1103 72.7632 65.1118C72.9912 65.1123 73.2953 65.113 73.5233 65.1135C73.7514 65.114 74.0555 65.0386 74.2075 65.115C73.9034 65.0383 73.5994 64.6572 73.3713 64.5046C72.9912 64.1995 72.6871 63.8945 72.3831 63.5896C71.6229 62.9032 70.9387 62.2171 70.2545 61.4549C69.0382 60.159 60.8282 48.6542 59.0038 46.8245C57.6355 45.4522 56.0391 44.2315 54.2146 43.5428C52.0861 42.7014 49.7295 42.4679 47.449 42.615C45.8526 42.7636 44.0281 42.9878 42.5078 43.669C42.2797 43.7446 42.2037 43.8966 42.0516 44.2005C41.7476 44.7323 41.5195 45.3404 41.3675 45.9486C40.0752 49.8253 40.5313 54.0862 43.1159 57.363C46.0806 61.1731 50.7938 63.1613 55.3549 64.0843C57.1793 64.3165 65.2373 64.8669 66.5296 64.9458Z" fill="#00730C"/>
<path d="M60.9805 48.883C59.6122 47.2065 58.0918 45.6056 56.2673 44.4605C52.6945 42.0944 48.2094 42.0084 44.1044 42.9882C43.4962 43.139 42.9641 43.29 42.3559 43.5168C42.2039 43.5926 42.2039 43.5926 42.3559 43.745C42.8881 44.3548 43.4962 45.0408 44.1044 45.6507C46.3089 48.0137 48.7415 50.3012 51.2501 52.3607C56.3434 56.4798 61.8927 59.9152 67.8982 62.591C69.9507 63.5084 72.0032 64.2736 74.1317 65.039C72.2312 63.6656 63.109 51.4741 60.9805 48.883Z" fill="#00730C"/>
<g opacity="0.5">
<g opacity="0.5">
<path opacity="0.5" d="M66.2252 57.9468C65.0849 58.781 63.6406 59.006 62.2723 59.003C60.8279 58.9237 59.6116 58.3124 58.3953 57.549C59.6876 58.2365 60.9799 58.7719 62.4243 58.9272C63.7166 58.854 65.0849 58.6289 66.2252 57.9468Z" fill="#00730C"/>
<path opacity="0.5" d="M69.2659 61.4523C67.8975 62.4382 66.0731 62.0538 64.7048 61.214C66.1491 61.9779 67.8215 62.362 69.2659 61.4523Z" fill="#00730C"/>
<path opacity="0.5" d="M63.1844 54.4405C61.6641 55.426 59.6876 55.7259 57.9392 55.5699C55.8106 55.413 53.9862 54.4961 52.2378 53.3512C54.0622 54.3442 55.8867 55.185 57.9392 55.4178C59.6876 55.5738 61.5881 55.2737 63.1844 54.4405Z" fill="#00730C"/>
<path opacity="0.5" d="M60.5237 50.2507C58.6232 51.5397 56.1906 51.9147 53.9861 51.8337C51.5535 51.6762 49.3489 50.6063 47.2964 49.3086C48.2847 49.8432 49.2729 50.454 50.3372 50.8367C51.6295 51.296 52.9218 51.6031 54.3662 51.6824C56.4187 51.8391 58.7753 51.3879 60.5237 50.2507Z" fill="#00730C"/>
<path opacity="0.5" d="M57.9392 47.0504C55.7347 48.4147 52.998 48.5608 50.4894 48.251C47.8287 47.9408 45.3961 46.4901 43.2676 44.8879C45.4722 46.3381 47.7527 47.4081 50.3373 47.9464C52.922 48.2564 55.5826 48.2623 57.9392 47.0504Z" fill="#00730C"/>
</g>
<path opacity="0.5" d="M62.6525 63.6443C62.6525 62.3511 62.1204 60.9806 61.3602 59.99C60.448 58.7709 59.3077 58.0077 58.0154 57.2441C59.3077 57.8555 60.524 58.5429 61.3602 59.6858C62.1204 60.9046 62.7285 62.1991 62.6525 63.6443Z" fill="#00730C"/>
<path opacity="0.5" d="M66.9096 64.4145C66.9096 62.6649 65.6173 61.4449 64.2489 60.7573C65.6173 61.4449 66.9856 62.7412 66.9096 64.4145Z" fill="#00730C"/>
<path opacity="0.5" d="M58.6994 62.8753C58.7754 61.1258 58.0912 59.2226 57.103 57.7751C55.9627 56.0229 54.3663 54.8023 52.5419 53.6572C54.3663 54.6501 56.0387 55.8709 57.179 57.6231C58.1673 59.1467 58.9274 61.0501 58.6994 62.8753Z" fill="#00730C"/>
<path opacity="0.5" d="M53.5302 62.7876C53.9863 60.8107 53.7582 58.376 52.922 56.4724C52.3899 55.178 51.7057 54.0354 50.8695 52.9686C50.1854 52.0543 49.3492 51.2917 48.513 50.5291C50.3374 52.0546 52.0858 53.8081 52.998 56.0922C53.7582 58.1478 54.2144 60.507 53.5302 62.7876Z" fill="#00730C"/>
<path opacity="0.5" d="M48.2089 58.6683C48.8931 56.2356 48.437 53.5721 47.6008 51.2121C46.6885 48.6998 44.9401 46.642 43.1156 44.7362C43.9519 45.4987 44.7881 46.2613 45.5483 47.1758C46.4605 48.3189 47.2207 49.6138 47.7528 50.9081C48.589 53.4964 49.1211 56.16 48.2089 58.6683Z" fill="#00730C"/>
</g>
<path d="M74.2074 65.0389C74.0554 65.0385 71.6988 64.1205 71.3947 64.0437C70.0264 63.5082 68.658 62.8966 67.2897 62.285C64.325 60.9853 61.4363 59.4574 58.6236 57.8537C55.7349 56.1738 52.9222 54.3419 50.3375 52.2822C47.981 50.3753 42.6597 44.3539 42.1275 43.6681C42.1275 43.6681 42.1275 43.6681 42.2036 43.6683C43.876 45.5738 45.6244 47.4794 47.5249 49.1571C49.9575 51.2925 52.4661 53.3519 55.1267 55.1835C60.372 58.6944 65.9214 61.7495 71.8508 64.1208C72.3829 64.3502 72.9151 64.5796 73.5232 64.8091C73.5992 64.7332 74.0554 64.9625 74.2074 65.0389Z" fill="#00730C"/>
<path d="M2.67388 162.554C3.28203 161.947 3.89018 161.188 4.57434 160.428C7.91916 156.632 12.5563 151.166 17.4975 144.026C20.0061 140.456 22.5147 136.582 24.9473 132.252C27.3799 127.921 29.7365 123.286 31.789 118.27C33.8415 113.254 35.5139 107.857 36.5782 102.306L36.8063 101.241L36.9583 100.177C37.0343 99.4922 37.1863 98.7319 37.2624 98.0474L37.3384 97.5151L37.4144 96.9828L37.4904 95.918L37.6425 93.7883L37.6425 91.5823L37.6425 90.5173C37.6425 90.137 37.6425 89.7566 37.6425 89.4523L37.4904 87.246L37.4144 86.1808C37.4144 85.8005 37.3384 85.496 37.2624 85.1155C36.9583 82.2242 36.3501 79.4082 35.742 76.5923C35.1338 73.7763 34.3736 71.0361 33.6135 68.2959C32.0931 62.8916 30.2687 57.6387 28.4442 52.5379C26.6198 47.5133 24.7953 42.6407 23.2749 37.9971C21.7546 33.3535 20.5383 28.8626 20.2342 24.602C20.0822 22.4717 20.1582 20.418 20.5383 18.5171C20.9184 16.6162 21.6025 14.8681 22.5148 13.4248C23.427 11.9815 24.4912 10.7667 25.6315 9.70426C26.7718 8.71788 27.9121 7.88363 28.9003 7.27726C31.0288 5.98879 32.8533 5.15607 34.0696 4.70234C34.6777 4.39941 35.1338 4.24828 35.5139 4.17306C35.818 4.02159 35.97 4.02193 35.97 4.02193C35.97 4.02193 35.818 4.09766 35.4379 4.17289C35.1338 4.32435 34.6017 4.47531 33.9936 4.70217C32.7773 5.1559 30.9528 5.91255 28.7483 7.20086C27.684 7.80706 26.5437 8.6413 25.4035 9.62768C24.2632 10.6141 23.1229 11.8287 22.2107 13.348C21.2224 14.7912 20.5383 16.6153 20.0822 18.5161C19.626 20.4168 19.55 22.5466 19.7021 24.6769C19.9301 29.0134 21.1464 33.5803 22.5148 38.2997C23.9591 43.0192 25.7075 47.8916 27.456 52.9922C29.2044 58.0927 30.8768 63.3453 32.3211 68.7495C33.0813 71.4897 33.6895 74.2295 34.2976 76.9694C34.8298 79.7091 35.3619 82.5249 35.666 85.3402C35.742 85.7207 35.742 86.025 35.818 86.4055L35.894 87.4706L35.97 89.6008C35.97 89.9811 35.97 90.2854 35.97 90.6657L35.97 91.7307L35.894 93.8605L35.666 95.99L35.59 97.0548L35.5139 97.5871L35.4379 98.1194C35.3619 98.8039 35.2099 99.4882 35.1338 100.173L34.9818 101.237L34.7537 102.226C33.6135 107.7 31.865 112.869 29.8125 117.733C27.76 122.597 25.3274 127.156 22.8948 131.334C20.3862 135.513 17.8776 139.31 15.369 142.804C10.3518 149.715 5.71463 155.03 2.36981 158.674C1.83768 159.281 1.30555 159.813 0.849435 160.268L0.849435 162.778L2.67388 162.782L2.67388 162.554Z" fill="#00730C"/>
<path d="M31.0284 62.0526C31.0284 62.0526 30.7244 62.0519 30.6483 61.5193C30.7244 61.063 30.5723 60.4541 30.7244 59.6938C30.8764 58.9334 31.0284 58.0209 31.2565 56.9564C31.4846 55.892 31.7886 54.6755 32.2447 53.4594C32.4728 52.8513 32.7009 52.1672 32.9289 51.4831C33.233 50.7991 33.461 50.115 33.7651 49.4311C34.3733 48.0631 35.1335 46.6195 36.0457 45.1762C36.9579 43.7329 37.9461 42.3658 39.1624 41.0753C40.3787 39.7848 41.595 38.5704 43.0394 37.5086C44.4077 36.4467 45.9281 35.5372 47.4485 34.7038C48.2087 34.3251 48.9688 33.9465 49.729 33.6439C50.4892 33.3413 51.2494 33.0387 52.0096 32.8122C52.7698 32.5856 53.53 32.3591 54.2901 32.1326C55.0503 31.9821 55.8105 31.8317 56.4947 31.6811C57.1788 31.5304 57.939 31.4561 58.6232 31.3815C58.9273 31.3061 59.3074 31.3069 59.6114 31.2316C59.9155 31.2322 60.2956 31.157 60.5997 31.1577C61.2078 31.083 61.816 31.0843 62.4241 31.0096C63.0323 31.0109 63.5644 31.0121 64.0965 31.0133C64.6287 31.0145 65.0848 31.0155 65.5409 31.0165C65.997 31.0175 66.3771 31.0944 66.7572 31.0953C68.2015 31.1745 69.1138 31.2526 69.1138 31.2526C69.1138 31.2526 68.2776 31.2508 66.7572 31.1713C66.3771 31.1705 65.997 31.1696 65.5409 31.1686C65.0848 31.1676 64.6287 31.2427 64.0965 31.2415C63.5644 31.2403 63.0323 31.2391 62.4241 31.3139C61.816 31.3886 61.2078 31.4633 60.5997 31.538C60.2956 31.5374 59.9915 31.6127 59.6114 31.6119C59.3074 31.6873 58.9273 31.7625 58.6232 31.7619C57.939 31.9125 57.2549 31.987 56.5707 32.1377C55.8865 32.2883 55.1263 32.5148 54.4422 32.6654C53.682 32.8919 52.9978 33.1186 52.2376 33.4212C51.4774 33.7238 50.7933 34.0266 50.0331 34.3292C49.2729 34.7079 48.5887 35.0867 47.8286 35.4653C46.3842 36.2989 44.9398 37.2086 43.7236 38.3469C42.4312 39.409 41.2149 40.6234 40.1507 41.9143C39.0864 43.2051 38.1742 44.5724 37.338 45.9398C36.5778 47.3073 35.8176 48.6749 35.2855 50.043C34.9814 50.7269 34.7534 51.4111 34.5253 52.0191C34.2972 52.7033 34.0692 53.3113 33.9172 53.9195C33.5371 55.1358 33.309 56.2764 33.0809 57.2648C32.9289 58.2533 32.7769 59.1658 32.7008 59.9264C32.6248 60.6869 32.5488 61.2192 32.5488 61.5996C32.5488 61.9799 32.3208 64.0333 32.3208 64.0333C32.3208 64.6419 31.7126 63.6516 31.4846 63.1947C31.1045 62.7374 30.9524 62.661 31.0284 62.0526Z" fill="#00730C"/>
<path d="M90.3231 30.6911C91.3874 29.7807 92.5276 28.7943 93.5919 27.8838C94.048 27.4284 94.5041 27.049 94.9602 26.5936C95.1123 26.4418 95.3403 26.2141 95.4924 26.0623C95.6444 25.9105 95.7964 25.6066 95.9485 25.5308C95.6444 25.6823 95.2643 25.6054 94.9602 25.6047C94.5041 25.6037 94.048 25.6027 93.5919 25.6017C92.6037 25.5995 91.5394 25.5971 90.5512 25.4428C88.7267 25.2866 74.9673 22.4415 72.4587 22.2838C70.4822 22.2034 68.5058 22.3511 66.6813 23.1078C64.5528 23.9398 62.6523 25.3049 61.132 27.0511C60.0677 28.2659 58.8514 29.7085 58.2433 31.1525C58.1672 31.3805 58.1672 31.5327 58.3193 31.8373C58.4713 32.4462 58.6994 33.0553 59.0034 33.5884C60.6758 37.3196 63.8686 40.1412 67.9736 40.835C72.6868 41.6061 77.552 39.8673 81.5049 37.4418C83.0253 36.5324 89.3349 31.5257 90.3231 30.6911Z" fill="#00730C"/>
<path d="M75.3476 22.6706C73.219 22.3616 71.0145 22.2045 68.886 22.5802C64.6289 23.3314 61.2841 26.2907 59.0036 29.7088C58.6995 30.1646 58.3194 30.6962 58.0913 31.2282C58.0153 31.3802 58.0153 31.3802 58.2434 31.3807C59.0796 31.4586 59.9158 31.5365 60.828 31.6146C64.0968 31.8501 67.3656 31.8573 70.6344 31.6364C77.172 31.2705 83.5576 29.9915 89.7151 27.8752C91.8436 27.1192 93.8961 26.3631 95.9486 25.4548C93.592 25.8299 78.6924 23.1344 75.3476 22.6706Z" fill="#00730C"/>
<g opacity="0.5">
<g opacity="0.5">
<path opacity="0.5" d="M85.306 25.7358C85.002 27.1044 84.0897 28.2435 83.1015 29.1541C81.9612 30.0644 80.6689 30.4419 79.3006 30.6671C80.7449 30.2899 82.0372 29.8364 83.1775 28.9261C84.1657 28.1676 85.002 27.0284 85.306 25.7358Z" fill="#00730C"/>
<path opacity="0.5" d="M89.9431 26.2021C89.563 27.8748 87.9666 28.7841 86.4463 29.0851C88.0427 28.7843 89.487 27.8747 89.9431 26.2021Z" fill="#00730C"/>
<path opacity="0.5" d="M80.6688 25.269C80.2127 27.0176 78.9964 28.6124 77.5521 29.6742C75.8796 30.9637 73.9032 31.5679 71.8507 31.9437C73.9032 31.4918 75.8036 30.8114 77.476 29.598C78.9204 28.4601 80.2127 26.9416 80.6688 25.269Z" fill="#00730C"/>
<path opacity="0.5" d="M75.9557 23.9653C75.4996 26.2464 73.9792 28.1448 72.2308 29.5863C70.3303 31.1795 67.9737 31.8589 65.6172 32.234C66.7574 31.9323 67.8217 31.7064 68.886 31.2524C70.1783 30.7228 71.3186 30.0407 72.3828 29.2062C73.9792 27.9166 75.4236 25.942 75.9557 23.9653Z" fill="#00730C"/>
<path opacity="0.5" d="M71.8507 23.3477C71.1665 25.8565 69.2661 27.8301 67.2136 29.2708C65.009 30.8634 62.3484 31.39 59.6877 31.6884C62.2724 31.2377 64.705 30.5585 66.9095 29.118C69.038 27.6013 71.0145 25.78 71.8507 23.3477Z" fill="#00730C"/>
</g>
<path opacity="0.5" d="M86.5981 32.3559C85.6859 31.4411 84.3936 30.7536 83.1773 30.5227C81.733 30.2152 80.3646 30.4404 78.9203 30.8175C80.2886 30.3641 81.6569 30.1389 83.0253 30.3702C84.3176 30.6773 85.6859 31.2889 86.5981 32.3559Z" fill="#00730C"/>
<path opacity="0.5" d="M90.2471 30.0821C89.0308 28.8623 87.3584 28.7825 85.762 29.2354C87.2823 28.7063 89.1068 28.7864 90.2471 30.0821Z" fill="#00730C"/>
<path opacity="0.5" d="M83.177 34.4786C82.0367 33.1068 80.2123 32.266 78.5399 31.8058C76.4874 31.3449 74.5109 31.4926 72.4584 31.8684C74.5109 31.4166 76.4874 31.1167 78.5399 31.6537C80.2883 32.114 82.1127 33.0309 83.177 34.4786Z" fill="#00730C"/>
<path opacity="0.5" d="M79.2999 37.8929C78.3117 36.065 76.4872 34.5395 74.5868 33.6225C73.2945 33.0111 72.0782 32.628 70.7098 32.3968C69.5695 32.166 68.4293 32.2396 67.289 32.237C69.6456 32.0901 72.1542 32.1718 74.3587 33.3177C76.3352 34.311 78.3117 35.8368 79.2999 37.8929Z" fill="#00730C"/>
<path opacity="0.5" d="M72.6866 38.4866C71.5464 36.202 69.4178 34.5998 67.2133 33.4539C64.8567 32.2315 62.1961 31.9214 59.5354 31.7633C60.6757 31.7658 61.816 31.7684 62.9563 31.923C64.4006 32.0784 65.845 32.538 67.1373 33.1494C69.4178 34.4477 71.5464 36.0499 72.6866 38.4866Z" fill="#00730C"/>
</g>
<path d="M95.9489 25.5308C95.7968 25.6065 93.4402 26.5902 93.2122 26.6657C91.8438 27.1952 90.4755 27.7247 89.0312 28.1779C85.9904 29.2361 82.8736 30.066 79.6809 30.7435C76.4121 31.4209 73.1433 32.0222 69.7984 32.243C66.7577 32.4645 63.5649 32.4574 60.5242 31.9182C59.688 31.7642 58.7757 31.61 57.9395 31.456C57.9395 31.456 57.9395 31.456 57.9395 31.3799C60.4482 31.6137 63.0328 31.9237 65.5414 31.8532C68.7342 31.7842 72.003 31.6393 75.1958 31.1139C81.4293 30.1388 87.5868 28.555 93.5163 26.3621C94.0484 26.1351 94.5805 25.9081 95.1887 25.7573C95.3407 25.7576 95.7968 25.6065 95.9489 25.5308Z" fill="#00730C"/>
<path d="M39.4668 41.3041C39.4668 41.3041 39.4668 41.228 39.4668 41.0759C39.4668 40.9237 39.4668 40.7716 39.4668 40.5434C39.4668 40.3152 39.5428 40.0871 39.5428 39.7829C39.6188 39.5548 39.6188 39.2505 39.7709 38.9466C39.8469 38.7946 39.8469 38.7185 39.9229 38.5666C39.9989 38.4146 40.0749 38.3387 40.0749 38.1866C40.1509 38.1107 40.227 37.9587 40.227 37.8826C40.303 37.8067 40.379 37.6547 40.455 37.5788C40.6831 37.2751 40.9111 37.0474 40.9111 37.0474C40.9111 37.0474 40.7591 37.2752 40.531 37.6551C40.455 37.731 40.379 37.8069 40.379 37.959C40.303 38.0349 40.303 38.1871 40.227 38.263C40.151 38.4149 40.1509 38.491 40.0749 38.643C40.0749 38.7951 39.9989 38.871 39.9989 39.0232C39.9229 39.2512 39.9229 39.5555 39.9229 39.7837C39.9229 40.0119 39.9229 40.2401 39.9229 40.4683C39.9229 40.6965 39.9229 40.8487 39.9989 40.9249C39.9989 41.001 39.9989 41.0771 39.9989 41.0771C39.9989 41.2292 39.9229 41.3812 39.8469 41.381C39.6188 41.5326 39.4668 41.4562 39.4668 41.3041Z" fill="#00730C"/>
<path d="M35.8941 6.22778C34.8298 5.23651 33.7655 4.24524 32.7013 3.25397C32.2452 2.87261 31.7891 2.41518 31.2569 2.03365C31.0289 1.881 30.8768 1.72852 30.6488 1.57588C30.4968 1.4234 30.1927 1.34666 30.1167 1.11828C30.2687 1.34683 30.2687 1.80325 30.3447 2.10769C30.4207 2.56428 30.4968 3.02087 30.4968 3.47729C30.5728 4.46637 30.6488 5.53152 30.7248 6.5206C30.8008 8.34645 29.4325 22.3403 29.5845 24.851C29.7366 26.8291 30.1167 28.7317 31.0289 30.4833C32.0931 32.5396 33.6895 34.2167 35.514 35.59C36.8063 36.5818 38.4027 37.5742 39.9231 38.034C40.1511 38.1106 40.3032 38.0349 40.6072 37.9595C41.2154 37.7326 41.7475 37.4295 42.2796 37.1264C45.7765 35.0803 48.2091 31.5864 48.4371 27.4031C48.6652 22.6112 46.3846 17.9658 43.572 14.3082C42.5077 12.7845 36.8063 7.06658 35.8941 6.22778Z" fill="#00730C"/>
<path d="M29.5845 21.8843C29.5085 24.0141 29.6605 26.2204 30.1926 28.2755C31.4089 32.386 34.6777 35.436 38.4026 37.346C38.9348 37.6515 39.4669 37.8809 40.075 38.1105C40.3031 38.187 40.2271 38.1869 40.2271 37.9587C40.2271 37.1219 40.2271 36.2851 40.1511 35.3721C39.999 32.1007 39.695 28.8291 39.1628 25.6329C38.0226 19.2405 36.0461 12.9223 33.3094 6.9828C32.3972 4.92688 31.3329 3.02277 30.1926 1.04242C30.7248 3.40177 29.6605 18.5374 29.5845 21.8843Z" fill="#00730C"/>
<g opacity="0.5">
<g opacity="0.5">
<path opacity="0.5" d="M31.4852 11.695C32.9296 11.8504 34.1459 12.6138 35.1341 13.5288C36.1223 14.5199 36.7305 15.8145 37.1106 17.1846C36.5785 15.8141 36.0463 14.5958 34.9061 13.5283C34.0699 12.6136 32.8536 11.8502 31.4852 11.695Z" fill="#00730C"/>
<path opacity="0.5" d="M31.4854 7.05501C33.2338 7.21102 34.298 8.73479 34.7542 10.2572C34.222 8.65855 33.1578 7.28693 31.4854 7.05501Z" fill="#00730C"/>
<path opacity="0.5" d="M31.5611 16.3357C33.3855 16.5679 35.058 17.6366 36.2743 18.9325C37.7186 20.4571 38.5548 22.3607 39.163 24.3399C38.4788 22.3606 37.6426 20.533 36.1982 19.0084C34.9059 17.7884 33.3095 16.6438 31.5611 16.3357Z" fill="#00730C"/>
<path opacity="0.5" d="M30.801 21.1262C33.0815 21.3595 35.134 22.6573 36.8064 24.2584C38.5549 26.0119 39.4671 28.22 40.1512 30.5797C39.7712 29.5138 39.3911 28.448 38.8589 27.3819C38.1748 26.1632 37.4146 25.0965 36.4263 24.1054C34.906 22.7328 32.8535 21.5111 30.801 21.1262Z" fill="#00730C"/>
<path opacity="0.5" d="M30.6491 25.3096C33.2337 25.7718 35.3623 27.374 37.0347 29.2795C38.8591 31.2613 39.6953 33.9256 40.3035 36.5134C39.5433 34.0014 38.6311 31.6412 36.9587 29.5836C35.2102 27.6779 33.1577 25.9238 30.6491 25.3096Z" fill="#00730C"/>
</g>
<path opacity="0.5" d="M37.9468 9.73145C37.1106 10.7185 36.6545 12.0868 36.5024 13.3035C36.3504 14.8246 36.7305 16.1186 37.2626 17.4891C36.6545 16.1945 36.2744 14.9005 36.3504 13.4553C36.5784 12.1627 36.9585 10.7182 37.9468 9.73145Z" fill="#00730C"/>
<path opacity="0.5" d="M35.286 6.30249C34.1457 7.59315 34.2978 9.3431 34.9059 10.8659C34.2978 9.41917 34.1457 7.59315 35.286 6.30249Z" fill="#00730C"/>
<path opacity="0.5" d="M40.4552 12.856C39.2389 14.1465 38.5547 16.0467 38.3267 17.7197C38.0986 19.7731 38.4787 21.7518 39.0869 23.7309C38.4027 21.7516 37.9466 19.7728 38.1746 17.6433C38.4027 15.9703 39.0869 14.1461 40.4552 12.856Z" fill="#00730C"/>
<path opacity="0.5" d="M44.2563 16.3633C42.5839 17.5767 41.2156 19.5515 40.5314 21.4517C40.0753 22.7439 39.8473 24.0366 39.7713 25.4817C39.6952 26.6226 39.8473 27.764 39.9233 28.9052C39.5432 26.5462 39.3151 24.1115 40.2274 21.7553C41.0636 19.7033 42.2799 17.576 44.2563 16.3633Z" fill="#00730C"/>
<path opacity="0.5" d="M45.6246 22.9087C43.4961 24.2732 42.1278 26.6284 41.2156 28.9085C40.2273 31.4166 40.2273 34.079 40.3794 36.7418C40.2273 35.6004 40.0753 34.459 40.1513 33.3182C40.1513 31.8728 40.4554 30.4282 40.9115 28.9838C41.8997 26.6279 43.2681 24.2727 45.6246 22.9087Z" fill="#00730C"/>
</g>
<path d="M30.1163 1.11836C30.1924 1.1946 31.4087 3.4794 31.5607 3.70794C32.2449 5.00265 32.929 6.37343 33.5372 7.66797C34.9055 10.6377 36.1218 13.6072 37.11 16.6522C38.1743 19.7734 39.0865 23.0464 39.6947 26.3188C40.2268 29.3628 40.6069 32.4825 40.4549 35.601C40.3788 36.5137 40.3028 37.3503 40.3028 38.2631C40.3028 38.2631 40.3028 38.2631 40.2268 38.263C40.2268 35.6766 40.1508 33.1661 39.8467 30.6551C39.3906 27.4592 38.8585 24.263 38.0223 21.1423C36.3499 15.053 34.1453 9.11465 31.2566 3.40299C31.0286 2.86999 30.7245 2.33683 30.4204 1.80366C30.4204 1.65152 30.1924 1.27067 30.1163 1.11836Z" fill="#00730C"/>
<path d="M55.7348 9.84723C55.5067 8.40139 55.2026 7.03146 54.8986 5.58545C54.7465 4.97655 54.5945 4.36766 54.4424 3.75876C54.3664 3.53038 54.2904 3.22593 54.2144 2.99755C54.1384 2.76917 53.9863 2.54063 54.0624 2.31258C54.0624 2.61686 53.7583 2.99654 53.6062 3.22441C53.3782 3.60426 53.1501 4.06017 52.9221 4.44002C52.3899 5.35168 51.8578 6.18727 51.3257 7.02286C50.3374 8.54207 40.9111 18.9428 39.5428 21.1458C38.4785 22.8169 37.6423 24.5647 37.3383 26.5419C36.9582 28.8231 37.2622 31.1059 37.9464 33.3134C38.4785 34.9121 39.0867 36.587 40.0749 37.9584C40.227 38.187 40.379 38.1873 40.6831 38.2641C41.2912 38.4175 41.8994 38.495 42.5075 38.5724C46.5365 38.9617 50.6415 37.6015 53.2261 34.4123C56.2669 30.7677 57.1791 25.673 57.1031 20.9565C57.1791 19.0549 55.9628 11.1409 55.7348 9.84723Z" fill="#00730C"/>
<path d="M41.2914 18.7916C39.9991 20.4622 38.7828 22.2852 38.0226 24.3374C36.5022 28.3658 37.4145 32.7038 39.3149 36.5115C39.543 37.0445 39.8471 37.5777 40.2271 38.111C40.3792 38.2635 40.3032 38.2633 40.4552 38.0354C40.9873 37.352 41.4434 36.6684 41.8996 35.9087C43.724 33.1742 45.3964 30.3633 46.8408 27.4759C49.7295 21.6249 51.858 15.3918 53.1503 9.00482C53.6064 6.7998 53.9105 4.59444 54.1385 2.38892C53.2263 4.59293 43.3439 16.1337 41.2914 18.7916Z" fill="#00730C"/>
<g opacity="0.5">
<g opacity="0.5">
<path opacity="0.5" d="M48.9696 11.6572C50.0338 12.5724 50.566 13.9429 50.87 15.3128C51.0981 16.7587 50.794 18.0512 50.2619 19.4193C50.642 18.0508 50.9461 16.6822 50.642 15.1602C50.4139 13.9425 49.8818 12.5721 48.9696 11.6572Z" fill="#00730C"/>
<path opacity="0.5" d="M51.706 7.93629C52.9983 9.08021 52.9983 10.9059 52.4662 12.4261C52.9223 10.9057 52.8463 9.15594 51.706 7.93629Z" fill="#00730C"/>
<path opacity="0.5" d="M46.233 15.4547C47.5253 16.6747 48.2855 18.5781 48.5135 20.3282C48.8176 22.4589 48.3615 24.4357 47.6013 26.4118C48.2094 24.4353 48.5895 22.4584 48.3615 20.404C48.1334 18.5778 47.4493 16.7506 46.233 15.4547Z" fill="#00730C"/>
<path opacity="0.5" d="M42.736 18.8701C44.4844 20.3954 45.3206 22.6793 45.7007 24.8862C46.0808 27.3213 45.5487 29.6783 44.7125 31.9585C45.0166 30.8942 45.3967 29.754 45.5487 28.6133C45.7007 27.2444 45.7007 25.8751 45.4727 24.5054C45.1686 22.5269 44.1804 20.3186 42.736 18.8701Z" fill="#00730C"/>
<path opacity="0.5" d="M40.1515 22.1352C41.9759 24.041 42.7361 26.6291 42.9642 29.1399C43.2682 31.8791 42.356 34.4635 41.2917 36.8954C42.204 34.3871 42.8121 32.0302 42.7361 29.3676C42.432 26.7045 41.8239 24.1168 40.1515 22.1352Z" fill="#00730C"/>
</g>
<path opacity="0.5" d="M55.2789 13.9536C53.9866 14.255 52.8463 15.0132 52.0101 16.0003C51.0219 17.1391 50.4898 18.4311 50.1097 19.7995C50.4137 18.431 50.8699 17.1388 51.7821 15.9998C52.7703 15.013 53.9106 14.1788 55.2789 13.9536Z" fill="#00730C"/>
<path opacity="0.5" d="M55.127 9.61719C53.4545 9.99383 52.5423 11.5132 52.1622 13.0338C52.4663 11.513 53.4545 9.91776 55.127 9.61719Z" fill="#00730C"/>
<path opacity="0.5" d="M55.431 17.9097C53.6826 18.2101 52.0102 19.3474 50.7939 20.5618C49.3495 22.08 48.5133 23.9039 47.8292 25.8802C48.4373 23.9037 49.1975 22.0036 50.7179 20.4856C51.9342 19.1951 53.6066 18.1338 55.431 17.9097Z" fill="#00730C"/>
<path opacity="0.5" d="M56.4191 23.0087C54.3666 23.0042 52.086 23.7598 50.4136 24.9733C49.2733 25.7314 48.2851 26.6421 47.4489 27.7052C46.6887 28.6164 46.1566 29.6041 45.5484 30.5916C46.6127 28.464 47.905 26.413 49.9575 25.0483C51.858 23.7593 54.1385 22.8515 56.4191 23.0087Z" fill="#00730C"/>
<path opacity="0.5" d="M53.6825 29.088C51.1739 28.9303 48.6653 29.9898 46.6128 31.2784C44.3322 32.7187 42.7358 34.8451 41.2915 37.0479C41.8236 36.0602 42.4317 35.0726 43.1159 34.1613C44.0281 33.0223 45.0924 32.0357 46.3087 31.1256C48.5132 29.8373 50.9458 28.7777 53.6825 29.088Z" fill="#00730C"/>
</g>
<path d="M54.0624 2.38843C54.0624 2.54057 53.7583 5.05021 53.6823 5.35432C53.4542 6.79914 53.2262 8.24397 52.9221 9.68863C52.3139 12.8822 51.4777 15.9992 50.4895 19.1159C49.5013 22.3087 48.361 25.425 46.8406 28.3884C45.4723 31.1239 43.9519 33.859 41.9754 36.2889C41.4433 36.9723 40.8351 37.6556 40.303 38.3391C40.303 38.3391 40.303 38.3391 40.227 38.3389C41.7474 36.2884 43.1917 34.2377 44.408 31.9583C45.9284 29.1471 47.4488 26.2598 48.589 23.2195C50.8696 17.2911 52.618 11.2094 53.6063 4.9738C53.6823 4.36541 53.7583 3.83308 53.9103 3.22486C53.9864 2.99682 54.0624 2.54057 54.0624 2.38843Z" fill="#00730C"/>
<path d="M35.97 75.5275C35.97 75.5275 35.894 75.7555 35.8179 76.1357C35.7419 76.5159 35.5899 76.972 35.5899 77.5045C35.5899 77.7327 35.5139 78.0368 35.5139 78.265C35.5139 78.4172 35.5139 78.4932 35.5139 78.5693C35.5139 78.6454 35.5139 78.7975 35.5139 78.8736C35.5139 78.9496 35.5899 79.0259 35.5899 79.102C35.5899 79.178 35.5899 79.2541 35.6659 79.2543C35.7419 79.3305 35.7419 79.4066 35.7419 79.4066C35.7419 79.4066 35.7419 79.3305 35.6659 79.2543C35.6659 79.1782 35.5899 79.178 35.5899 79.102C35.5899 79.0259 35.5139 78.9496 35.5139 78.8736C35.5139 78.7975 35.4378 78.6452 35.4378 78.5691C35.4378 78.4931 35.4378 78.3409 35.4378 78.2648C35.4378 78.0366 35.4378 77.8084 35.4378 77.5041C35.5139 76.5154 35.7419 75.527 35.7419 75.527C35.7419 75.4509 35.8179 75.375 35.8939 75.4513C35.97 75.3754 35.97 75.4514 35.97 75.5275Z" fill="#00730C"/>
<path d="M38.4026 59.2535C38.0225 58.5681 37.6424 57.9587 37.2623 57.2732C37.1103 56.9686 36.8822 56.7398 36.7302 56.4352C36.6542 56.2829 36.5781 56.2067 36.5021 56.0544C36.4261 55.9781 36.3501 55.8258 36.2741 55.7496C36.2741 55.9017 36.2741 56.1299 36.1981 56.2819C36.1981 56.5101 36.122 56.7382 36.046 56.9662C35.97 57.4985 35.818 58.0307 35.6659 58.5628C35.4379 59.4752 32.5492 66.3911 32.2451 67.6837C32.017 68.6721 31.941 69.7369 32.093 70.7261C32.3211 71.9437 32.8532 73.0099 33.6134 74.0005C34.1455 74.6863 34.7537 75.4484 35.5139 75.9065C35.6659 75.9829 35.7419 75.983 35.894 75.9834C36.198 75.9841 36.5781 75.9088 36.8822 75.8334C39.0107 75.3057 40.7592 73.9403 41.5194 71.8881C42.3556 69.5318 41.8994 66.7922 41.0632 64.5083C40.7592 63.5948 38.7067 59.8628 38.4026 59.2535Z" fill="#00730C"/>
<path d="M32.7774 66.2397C32.3973 67.3038 32.0932 68.4442 32.0932 69.5853C32.0932 71.8674 33.3095 73.9239 34.8299 75.4487C35.058 75.6774 35.286 75.9061 35.5141 76.0588C35.5901 76.135 35.5901 76.135 35.5901 75.9829C35.7421 75.5268 35.8182 75.1466 35.9702 74.6905C36.4263 73.018 36.7304 71.3451 36.9584 69.596C37.4146 66.1739 37.3385 62.6745 36.8064 59.2502C36.6544 58.1088 36.4263 56.8912 36.1222 55.7494C36.1983 57.0428 33.3095 64.5673 32.7774 66.2397Z" fill="#00730C"/>
<g opacity="0.5">
<g opacity="0.5">
<path opacity="0.5" d="M35.3621 61.3763C36.0462 61.6821 36.5784 62.2158 36.9584 62.9012C37.3385 63.5867 37.4146 64.2715 37.4146 65.0322C37.3385 64.2714 37.2625 63.5105 36.8824 62.825C36.5023 62.2156 35.9702 61.6819 35.3621 61.3763Z" fill="#00730C"/>
<path opacity="0.5" d="M36.0462 59.0199C36.8824 59.4021 37.1865 60.3157 37.1865 61.1524C37.1865 60.2396 36.8824 59.4021 36.0462 59.0199Z" fill="#00730C"/>
<path opacity="0.5" d="M34.6018 63.733C35.438 64.1152 36.1982 64.9537 36.5782 65.7913C37.1104 66.7814 37.1864 67.8465 37.1864 68.9876C37.1104 67.9224 36.9583 66.8571 36.5022 65.8672C36.1221 64.9535 35.438 64.1152 34.6018 63.733Z" fill="#00730C"/>
<path opacity="0.5" d="M33.5374 66.0126C34.6777 66.4716 35.5139 67.4623 36.122 68.5286C36.7302 69.671 36.8822 70.9646 36.8822 72.2578C36.8822 71.6492 36.8062 71.0405 36.7302 70.4317C36.5781 69.7468 36.3501 69.0616 35.97 68.3762C35.3618 67.462 34.5256 66.5473 33.5374 66.0126Z" fill="#00730C"/>
<path opacity="0.5" d="M32.7772 68.1413C33.9935 68.7525 34.8297 69.8954 35.4379 71.1139C36.046 72.4085 36.046 73.8538 35.97 75.2989C35.97 73.9297 35.894 72.5603 35.3618 71.2659C34.7537 70.0474 33.9935 68.8286 32.7772 68.1413Z" fill="#00730C"/>
</g>
<path opacity="0.5" d="M38.9349 61.3848C38.3268 61.7638 37.8707 62.3713 37.6426 62.9794C37.3385 63.7394 37.3386 64.424 37.3386 65.2608C37.2625 64.4999 37.2625 63.8153 37.4906 63.0551C37.7947 62.3712 38.2508 61.6875 38.9349 61.3848Z" fill="#00730C"/>
<path opacity="0.5" d="M38.0989 59.2529C37.3387 59.7837 37.1106 60.62 37.1867 61.4569C37.1106 60.62 37.2627 59.7075 38.0989 59.2529Z" fill="#00730C"/>
<path opacity="0.5" d="M39.6949 63.3643C38.8587 63.8188 38.2506 64.6542 37.8705 65.4902C37.4144 66.4781 37.3384 67.5429 37.3384 68.6839C37.2624 67.5427 37.3384 66.4779 37.7945 65.49C38.1746 64.578 38.8587 63.7428 39.6949 63.3643Z" fill="#00730C"/>
<path opacity="0.5" d="M41.0635 65.7251C39.9992 66.1031 39.011 66.8616 38.4028 67.7731C37.9467 68.3806 37.6426 68.9885 37.4146 69.6726C37.1865 70.2046 37.1105 70.813 36.9585 71.4212C37.1105 70.1284 37.4146 68.9119 38.1748 67.8487C38.935 66.8614 39.9232 66.0268 41.0635 65.7251Z" fill="#00730C"/>
<path opacity="0.5" d="M40.7593 69.2241C39.467 69.6016 38.4027 70.5121 37.5665 71.5752C36.6543 72.7142 36.2742 74.0827 35.9701 75.3752C36.0461 74.7668 36.1982 74.1586 36.3502 73.6264C36.5783 72.8662 36.9583 72.1824 37.4145 71.5749C38.3267 70.5119 39.3909 69.5254 40.7593 69.2241Z" fill="#00730C"/>
</g>
<path d="M36.2745 55.7494C36.3505 55.8256 36.5786 57.1193 36.5786 57.2714C36.7306 58.0325 36.8826 58.7935 36.9587 59.6304C37.1867 61.3045 37.3387 63.0544 37.4148 64.7282C37.4908 66.4779 37.4148 68.2274 37.2627 70.0527C37.0347 71.6497 36.8066 73.3227 36.1985 74.8428C36.0464 75.2989 35.8944 75.6789 35.6663 76.1348C36.0464 74.8424 36.4265 73.5501 36.6546 72.1813C36.9586 70.5085 37.1867 68.7594 37.1867 67.0858C37.2627 63.7389 37.0347 60.3913 36.5025 57.0431C36.4265 56.7386 36.4265 56.4343 36.3505 56.1299C36.3505 56.1299 36.2745 55.8254 36.2745 55.7494Z" fill="#00730C"/>
<path d="M30.1925 72.7765C30.1925 72.7765 30.7246 73.3102 31.5608 74.2249C32.397 75.1396 33.3853 76.3589 34.2975 77.6541C34.7536 78.3397 35.1337 79.0252 35.5138 79.6346C35.7419 79.9394 35.8179 80.3199 35.9699 80.6245C36.122 80.9291 36.198 81.2336 36.35 81.5382C36.502 81.8428 36.502 82.071 36.5781 82.2994C36.6541 82.5278 36.6541 82.756 36.6541 82.9081C36.6541 83.2885 36.7301 83.4408 36.7301 83.4408C36.7301 83.4408 36.7301 83.2126 36.7301 82.9083C36.7301 82.7562 36.7301 82.528 36.6541 82.2996C36.5781 82.0712 36.5781 81.7669 36.502 81.4625C36.426 81.158 36.35 80.8536 36.198 80.549C36.0459 80.2443 35.9699 79.8638 35.8179 79.5592C35.5138 78.8739 35.1337 78.1124 34.7536 77.4269C33.1572 74.6088 30.9527 72.1696 30.9527 72.1696C30.8006 72.0171 30.4966 71.9404 30.3445 72.0922C30.0405 72.3197 30.0405 72.624 30.1925 72.7765Z" fill="#00730C"/>
<path d="M2.59763 43.4281C2.44559 41.6781 2.29355 39.8521 2.14151 38.1021C2.06549 37.3413 2.06549 36.5806 2.06549 35.7438C2.06549 35.4395 2.06549 35.0592 2.06549 34.7549C2.06549 34.5267 2.14151 34.1465 2.06549 33.9181C2.06549 33.9942 2.06549 33.9942 2.06549 33.9181C2.21752 34.2988 2.67364 34.6041 2.9017 34.9089C3.28179 35.3662 3.66189 35.7473 4.118 36.1287C5.03022 37.0436 5.94245 37.8824 6.93069 38.7213C8.67912 40.1705 23.3507 49.7118 25.7833 51.8472C27.6078 53.4487 29.2041 55.354 30.1924 57.5622C31.4087 60.1513 31.7888 63.0428 31.7128 65.9333C31.6367 67.987 31.4087 70.2686 30.7245 72.1688C30.6485 72.473 30.4204 72.5485 30.1164 72.7761C29.4322 73.1549 28.748 73.4577 27.9878 73.7602C23.2747 75.5755 17.9534 75.2594 13.6963 72.2832C8.83115 68.8493 6.09448 62.9858 4.65013 57.4295C3.96596 54.9177 2.74966 45.0259 2.59763 43.4281Z" fill="#00730C"/>
<path d="M22.8946 49.4071C25.0231 51.0092 27.0756 52.8395 28.672 54.973C31.7887 59.3159 32.1688 64.8698 31.1806 69.9643C31.0286 70.7247 30.8765 71.409 30.6485 72.1692C30.5724 72.3972 30.5724 72.3212 30.3444 72.1685C29.5082 71.482 28.672 70.7955 27.9118 70.1092C24.795 67.4399 21.9063 64.6189 19.1696 61.57C13.7723 55.4724 9.13518 48.6919 5.48629 41.4572C4.26999 38.9442 3.12972 36.4313 2.14148 33.8427C3.8899 36.2048 19.5497 46.8893 22.8946 49.4071Z" fill="#00730C"/>
<g opacity="0.5">
<g opacity="0.5">
<path opacity="0.5" d="M11.3395 43.3723C10.3513 44.8915 10.1992 46.6408 10.2753 48.3906C10.5033 50.1407 11.3395 51.664 12.3278 53.1115C11.3395 51.5879 10.5793 49.9887 10.4273 48.1627C10.2753 46.5649 10.5793 44.816 11.3395 43.3723Z" fill="#00730C"/>
<path opacity="0.5" d="M6.85474 39.7111C5.71446 41.5342 6.32261 43.7416 7.46289 45.3416C6.39863 43.6657 5.79048 41.6104 6.85474 39.7111Z" fill="#00730C"/>
<path opacity="0.5" d="M15.9007 46.958C14.7604 48.8572 14.5324 51.367 14.7604 53.5736C15.1405 56.2369 16.3568 58.4456 17.8772 60.5789C16.5089 58.3699 15.3686 56.1613 14.9885 53.5741C14.6844 51.4435 14.8365 48.9335 15.9007 46.958Z" fill="#00730C"/>
<path opacity="0.5" d="M21.1461 50.0122C19.6257 52.4431 19.3216 55.4852 19.5497 58.2242C19.8537 61.2677 21.3741 63.9335 23.1226 66.3717C22.3624 65.1529 21.6022 63.9341 21.07 62.6397C20.4619 61.0409 20.0058 59.4424 19.7777 57.6923C19.4737 55.2573 19.9298 52.2916 21.1461 50.0122Z" fill="#00730C"/>
<path opacity="0.5" d="M25.4032 53.0645C23.8828 55.8757 23.8068 59.2987 24.3389 62.3427C24.871 65.691 26.8475 68.5099 28.9 71.1009C26.9996 68.4342 25.4792 65.6923 24.719 62.4957C24.1869 59.3756 23.9588 56.028 25.4032 53.0645Z" fill="#00730C"/>
</g>
<path opacity="0.5" d="M4.42182 48.1486C6.01821 48.0761 7.69063 48.6123 9.05896 49.5282C10.6554 50.5206 11.6436 51.8921 12.6318 53.4918C11.7956 51.9685 10.8074 50.521 9.36303 49.5289C7.91868 48.6128 6.24627 48.0006 4.42182 48.1486Z" fill="#00730C"/>
<path opacity="0.5" d="M3.20566 42.8975C5.33418 42.8262 6.93058 44.275 7.91882 46.0268C7.0066 44.2752 5.33418 42.7501 3.20566 42.8975Z" fill="#00730C"/>
<path opacity="0.5" d="M5.63799 53.0202C7.84253 52.873 10.1991 53.6389 12.0235 54.7079C14.2281 56.0821 15.9005 57.9876 17.3448 60.1207C15.9765 57.9117 14.3801 55.9303 12.0996 54.556C10.2751 53.4109 7.84253 52.6448 5.63799 53.0202Z" fill="#00730C"/>
<path opacity="0.5" d="M6.09437 59.4867C8.52696 58.7314 11.5677 58.9663 13.9243 59.8844C15.5967 60.4966 17.041 61.2605 18.4094 62.2525C19.5497 63.0918 20.6139 64.0831 21.6022 65.0742C19.6257 62.8637 17.3451 60.8048 14.4564 59.8095C11.7958 58.8907 8.75502 58.5037 6.09437 59.4867Z" fill="#00730C"/>
<path opacity="0.5" d="M11.4156 65.8127C14.3804 64.8304 17.7252 65.2182 20.6899 66.1376C23.8827 67.1336 26.5434 69.1934 28.976 71.4048C27.9877 70.4137 26.9995 69.3465 25.7832 68.5071C24.3388 67.3628 22.6664 66.5984 20.994 65.9101C17.8772 65.0664 14.6084 64.5266 11.4156 65.8127Z" fill="#00730C"/>
</g>
<path d="M2.06573 33.8417C2.06573 34.07 3.35806 36.9635 3.51009 37.2681C4.27028 38.9433 5.03046 40.6186 5.86666 42.294C7.69111 45.8733 9.6676 49.3769 11.8721 52.8049C14.1527 56.3092 16.5853 59.6617 19.322 62.7866C21.9066 65.607 29.5845 71.9378 30.4967 72.5484L30.4967 72.4723C27.9881 70.4889 25.5555 68.5057 23.3509 66.1427C20.5383 63.2458 17.8016 60.273 15.445 56.9967C10.7319 50.6724 6.62686 43.8931 3.35806 36.7353C3.05398 36.05 2.7499 35.3647 2.44583 34.7554C2.44583 34.6033 2.21777 33.9942 2.06573 33.8417Z" fill="#00730C"/>
<path d="M54.138 116.722C54.138 116.722 54.062 116.722 53.986 116.798C53.91 116.798 53.7579 116.873 53.6059 116.949C53.5299 116.949 53.4539 116.949 53.3778 117.025C53.3018 117.025 53.2258 117.024 53.0738 117.024C52.9978 117.024 52.8457 117.023 52.7697 117.023C52.6937 117.023 52.5416 117.023 52.4656 117.023C52.3896 117.022 52.2376 117.022 52.1615 116.946C52.0855 116.946 51.9335 116.869 51.8575 116.869C51.7814 116.869 51.6294 116.793 51.5534 116.792C51.4774 116.792 51.4014 116.716 51.3253 116.716C51.0213 116.639 50.7932 116.563 50.7932 116.563C50.7932 116.563 51.0213 116.639 51.3253 116.792C51.4014 116.792 51.4774 116.868 51.5534 116.868C51.6294 116.869 51.7054 116.945 51.8575 116.945C51.9335 116.945 52.0855 117.022 52.1615 117.022C52.2376 117.022 52.3896 117.099 52.4656 117.099C52.5416 117.099 52.6937 117.099 52.7697 117.175C52.8457 117.176 52.9978 117.176 53.0738 117.176C53.1498 117.176 53.3018 117.177 53.3778 117.177C53.4539 117.177 53.6059 117.177 53.6819 117.177C53.834 117.178 53.986 117.102 54.062 117.102C54.138 117.102 54.2141 117.027 54.2141 117.027C54.2901 117.027 54.2901 116.951 54.2901 116.875C54.3661 116.723 54.214 116.722 54.138 116.722C54.138 116.722 54.214 116.722 54.138 116.722Z" fill="#00730C"/>
<path d="M37.4136 109.383C37.1095 108.697 36.8055 108.012 36.5774 107.327C36.4254 107.022 36.3494 106.718 36.1973 106.413C36.1213 106.261 36.1213 106.185 36.0453 106.032C36.0453 105.956 35.9693 105.804 35.8932 105.728C35.9693 105.88 36.1973 105.957 36.3494 105.957C36.5774 106.11 36.7294 106.186 36.9575 106.263C37.4136 106.492 37.8697 106.721 38.4019 106.874C39.2381 107.181 46.2318 108.946 47.4481 109.481C48.3603 109.863 49.1965 110.398 49.9567 111.16C50.7929 111.999 51.325 113.065 51.6291 114.206C51.8572 115.044 52.0852 115.957 52.0852 116.794C52.0852 116.946 52.0092 117.022 51.9332 117.098C51.7051 117.325 51.4771 117.553 51.249 117.781C49.6526 119.147 47.5241 119.674 45.4716 119.061C43.115 118.371 41.2906 116.466 39.9982 114.485C39.4661 113.647 37.7177 109.992 37.4136 109.383Z" fill="#00730C"/>
<path d="M46.0803 109.021C47.1446 109.328 48.1328 109.786 49.0451 110.473C50.7935 111.77 51.7057 113.902 52.0098 116.033C52.0858 116.337 52.0858 116.641 52.0858 116.946C52.0858 117.022 52.0858 117.022 51.9338 117.021C51.5537 116.868 51.0976 116.715 50.7175 116.562C49.1971 115.95 47.6767 115.186 46.1564 114.422C43.2677 112.742 40.531 110.758 38.1744 108.395C37.3382 107.556 36.578 106.718 35.8938 105.88C36.9581 106.414 44.484 108.485 46.0803 109.021Z" fill="#00730C"/>
<g opacity="0.5">
<g opacity="0.5">
<path opacity="0.5" d="M40.8347 108.173C40.6826 108.857 40.8347 109.618 41.0627 110.304C41.3668 110.989 41.8989 111.446 42.5071 111.904C41.8989 111.446 41.4428 110.913 41.1387 110.228C40.8347 109.542 40.6826 108.857 40.8347 108.173Z" fill="#00730C"/>
<path opacity="0.5" d="M38.6302 107.408C38.4021 108.244 38.9342 109.082 39.6184 109.54C38.9342 109.006 38.4021 108.244 38.6302 107.408Z" fill="#00730C"/>
<path opacity="0.5" d="M43.1151 109.015C42.887 109.928 43.1911 110.917 43.5712 111.755C44.0273 112.745 44.7875 113.431 45.6997 114.042C44.8635 113.355 44.1033 112.669 43.6472 111.679C43.1911 110.917 42.963 109.928 43.1151 109.015Z" fill="#00730C"/>
<path opacity="0.5" d="M45.5475 109.477C45.2434 110.617 45.5475 111.835 46.0036 112.901C46.5357 114.043 47.4479 114.882 48.4362 115.645C47.98 115.264 47.5239 114.882 47.1438 114.425C46.6877 113.892 46.3076 113.358 46.0036 112.673C45.5475 111.759 45.3194 110.541 45.5475 109.477Z" fill="#00730C"/>
<path opacity="0.5" d="M47.6002 110.09C47.3721 111.382 47.8282 112.753 48.4364 113.895C49.1206 115.114 50.1848 115.953 51.4011 116.716C50.3369 115.953 49.3486 115.038 48.6644 113.896C47.9043 112.753 47.4482 111.459 47.6002 110.09Z" fill="#00730C"/>
</g>
<path opacity="0.5" d="M38.7819 110.984C39.39 110.757 40.1502 110.759 40.7583 110.912C41.5185 111.142 42.1267 111.524 42.6588 111.981C42.1267 111.448 41.5945 111.066 40.8344 110.836C40.1502 110.682 39.466 110.681 38.7819 110.984Z" fill="#00730C"/>
<path opacity="0.5" d="M37.6417 109.079C38.4779 108.777 39.3141 109.159 39.9222 109.693C39.2381 109.159 38.4019 108.7 37.6417 109.079Z" fill="#00730C"/>
<path opacity="0.5" d="M39.9223 112.66C40.7585 112.281 41.7468 112.283 42.659 112.514C43.7233 112.744 44.5595 113.278 45.4717 113.889C44.6355 113.203 43.7993 112.668 42.735 112.438C41.7468 112.283 40.6825 112.281 39.9223 112.66Z" fill="#00730C"/>
<path opacity="0.5" d="M40.9105 115.172C41.7467 114.565 42.963 114.264 44.0273 114.266C44.7114 114.268 45.3956 114.421 46.0798 114.575C46.6119 114.728 47.144 115.034 47.6761 115.263C46.6119 114.652 45.4716 114.117 44.1793 114.19C43.039 114.188 41.8227 114.413 40.9105 115.172Z" fill="#00730C"/>
<path opacity="0.5" d="M43.7992 116.928C44.8635 116.17 46.1558 115.868 47.4481 115.795C48.8165 115.722 50.1088 116.181 51.3251 116.716C50.7929 116.487 50.2608 116.181 49.7287 116.028C49.0445 115.798 48.2843 115.721 47.5241 115.643C46.2318 115.792 44.8635 116.017 43.7992 116.928Z" fill="#00730C"/>
</g>
<path d="M35.9693 105.728C35.9693 105.804 36.8815 106.795 36.9575 106.871C37.4896 107.405 38.0218 107.939 38.5539 108.472C39.7702 109.616 40.9865 110.76 42.2788 111.751C43.6471 112.819 45.0155 113.811 46.4598 114.651C47.8282 115.415 51.6291 116.869 52.0852 116.946C50.8689 116.487 49.6526 116.028 48.4363 115.416C46.992 114.653 45.5476 113.889 44.1793 112.897C41.5186 111.065 39.01 108.93 36.8055 106.567C36.5774 106.338 36.4254 106.109 36.1973 105.881C36.1973 105.957 36.0453 105.728 35.9693 105.728Z" fill="#00730C"/>
<path d="M3.28195 161.034C3.28195 161.034 3.28195 160.958 3.35797 160.806C3.43399 160.654 3.51 160.426 3.66204 160.122C3.96611 159.514 4.34621 158.602 4.87834 157.463C6.01862 155.183 7.69102 151.992 10.0476 148.27C11.1879 146.446 12.5562 144.472 14.0766 142.497C15.597 140.523 17.3454 138.549 19.2459 136.651C21.1463 134.754 23.3509 132.933 25.7074 131.417L26.1636 131.113L26.6197 130.81C26.9237 130.659 27.2278 130.431 27.5319 130.28L27.7599 130.128L27.988 129.976L28.4441 129.749L29.4323 129.295L30.4206 128.841L30.9527 128.614C31.1048 128.538 31.2568 128.462 31.4849 128.387L32.4731 128.009L33.0052 127.858C33.1573 127.782 33.3853 127.782 33.5374 127.707C34.9057 127.329 36.35 127.028 37.7944 126.803C39.2388 126.578 40.6831 126.353 42.0514 126.204C44.9402 125.906 47.7528 125.76 50.4895 125.614C53.2262 125.468 55.8868 125.398 58.3954 125.251C60.9041 125.029 63.2606 124.73 65.3892 124.05C66.4534 123.672 67.4417 123.294 68.2779 122.687C69.1141 122.156 69.7982 121.473 70.3304 120.714C70.8625 119.954 71.2426 119.194 71.4706 118.51C71.6987 117.75 71.9268 117.066 72.0028 116.457C72.2308 115.165 72.2308 114.176 72.2308 113.491C72.2308 113.111 72.2308 112.883 72.2308 112.731C72.2308 112.578 72.2308 112.426 72.2308 112.426C72.2308 112.426 72.2308 112.502 72.2308 112.731C72.2308 112.883 72.2308 113.187 72.2308 113.491C72.2308 114.176 72.1548 115.165 71.9268 116.457C71.8507 117.066 71.6227 117.75 71.3946 118.51C71.1666 119.194 70.7105 119.954 70.1783 120.713C69.6462 121.397 68.962 122.08 68.1258 122.611C67.2896 123.141 66.3014 123.595 65.3131 123.898C63.2606 124.502 60.828 124.8 58.3194 124.947C55.8108 125.094 53.1502 125.088 50.4135 125.158C47.6768 125.228 44.8641 125.374 41.9754 125.595C40.5311 125.744 39.0867 125.893 37.6424 126.118C36.198 126.343 34.7537 126.568 33.3093 126.945C33.1573 127.021 32.9292 127.021 32.7772 127.096L32.245 127.247L31.1808 127.625C31.0287 127.701 30.8007 127.777 30.6487 127.852L30.1165 128.079L29.1283 128.534L28.14 128.988L27.6079 129.215L27.3798 129.367L27.1518 129.518C26.8477 129.67 26.5437 129.897 26.1636 130.048L25.7074 130.352L25.2513 130.655C22.7427 132.171 20.5382 133.992 18.5617 135.889C16.5852 137.786 14.7608 139.76 13.1644 141.734C11.568 143.709 10.1996 145.683 8.98335 147.506C6.55075 151.152 4.80231 154.42 3.58602 156.699C2.97787 157.839 2.59778 158.751 2.29371 159.435C2.14167 159.739 2.06565 159.967 1.98963 160.195C1.91361 160.347 1.91361 160.423 1.91361 160.423C1.76157 160.803 1.91361 161.259 2.29371 161.489C2.59778 161.641 3.05389 161.49 3.28195 161.034Z" fill="#00730C"/>
<path d="M45.3961 125.756C45.3961 125.756 45.4721 125.908 45.7002 125.832C45.9283 125.757 46.2323 125.681 46.5364 125.454C46.9165 125.226 47.2966 124.999 47.7527 124.696C48.2088 124.393 48.7409 124.013 49.2731 123.558C49.5771 123.331 49.8052 123.103 50.1093 122.875C50.3373 122.648 50.6414 122.344 50.9455 122.04C51.4776 121.509 52.0097 120.826 52.5419 120.142C53.074 119.459 53.5301 118.699 53.9102 117.939C54.2903 117.103 54.6704 116.267 54.8984 115.431C55.2025 114.595 55.2785 113.682 55.4306 112.846C55.4306 112.389 55.5066 112.009 55.5066 111.553C55.5066 111.096 55.5066 110.716 55.5066 110.26C55.4306 109.879 55.4306 109.423 55.3546 109.042C55.2785 108.662 55.2025 108.281 55.1265 107.901C55.0505 107.52 54.9745 107.216 54.8984 106.835C54.8224 106.683 54.8224 106.531 54.7464 106.302C54.6704 106.15 54.6704 105.998 54.5944 105.846C54.5184 105.541 54.3663 105.237 54.2903 104.932C54.2143 104.628 54.0622 104.399 53.9862 104.171C53.9102 103.942 53.8342 103.714 53.6821 103.485C53.6061 103.257 53.5301 103.105 53.4541 102.876C53.15 102.191 52.922 101.81 52.922 101.81C52.922 101.81 53.074 102.191 53.3781 102.952C53.4541 103.105 53.5301 103.333 53.6061 103.561C53.6821 103.79 53.7582 104.018 53.8342 104.246C53.9102 104.475 53.9862 104.779 54.1383 105.008C54.2143 105.312 54.2903 105.617 54.3663 105.921C54.4423 106.073 54.4423 106.226 54.5183 106.378C54.5183 106.53 54.5944 106.682 54.5944 106.911C54.6704 107.215 54.7464 107.596 54.8224 107.976C54.8984 108.357 54.8984 108.737 54.9745 109.117C54.9745 109.498 55.0505 109.878 55.0505 110.335C55.0505 110.715 55.0505 111.172 55.0505 111.552C55.0505 111.932 54.9745 112.388 54.8984 112.845C54.7464 113.681 54.5944 114.518 54.2903 115.354C54.0622 116.19 53.6821 116.95 53.226 117.709C52.8459 118.469 52.3138 119.153 51.8577 119.76C51.3256 120.368 50.7934 120.975 50.2613 121.506C50.0333 121.734 49.7292 121.962 49.4251 122.265C49.121 122.493 48.893 122.721 48.6649 122.872C48.1328 123.251 47.6767 123.631 47.2206 123.858C46.7645 124.161 46.3844 124.388 46.0043 124.54C45.7002 124.691 45.3961 124.843 45.2441 124.918C45.092 124.994 44.1038 125.448 44.1038 125.448C43.7997 125.6 44.4079 125.677 44.7119 125.678C45.092 125.831 45.1681 125.907 45.3961 125.756Z" fill="#00730C"/>
<path d="M49.349 91.6088C49.577 90.9246 49.8051 90.2405 50.1092 89.5566C50.1852 89.2524 50.3372 88.9485 50.4893 88.6446C50.5653 88.4926 50.5653 88.4165 50.6413 88.2645C50.7173 88.1886 50.7933 88.0367 50.7933 87.9606C50.7933 88.1127 50.8693 88.3411 50.9454 88.4934C51.0214 88.7218 51.0974 88.9502 51.1734 89.1786C51.4015 89.6355 51.5535 90.1683 51.7816 90.6252C52.1617 91.4629 56.1146 97.4812 56.6468 98.6995C57.0269 99.6131 57.3309 100.603 57.3309 101.592C57.3309 102.809 57.0269 103.949 56.4947 105.013C56.1146 105.773 55.6585 106.609 55.0504 107.216C54.9744 107.292 54.8983 107.292 54.7463 107.291C54.4422 107.29 54.1381 107.29 53.758 107.289C51.7055 107.208 49.7291 106.139 48.6648 104.311C47.4485 102.178 47.3725 99.5917 47.7526 97.2344C47.9046 96.1698 49.1209 92.2168 49.349 91.6088Z" fill="#00730C"/>
<path d="M55.9624 97.2528C56.4945 98.2428 56.9506 99.2328 57.1787 100.298C57.6348 102.429 56.8746 104.634 55.5823 106.38C55.4303 106.608 55.2022 106.912 54.9742 107.14C54.8981 107.216 54.8981 107.216 54.8221 107.063C54.5941 106.682 54.442 106.302 54.214 105.921C53.5298 104.398 52.8456 102.875 52.3895 101.277C51.4013 98.0794 50.7931 94.8071 50.6411 91.4596C50.5651 90.3184 50.5651 89.1774 50.6411 88.0365C51.0212 89.1023 55.0502 95.7293 55.9624 97.2528Z" fill="#00730C"/>
<g opacity="0.5">
<g opacity="0.5">
<path opacity="0.5" d="M52.6173 93.0615C52.0092 93.4405 51.6291 94.1243 51.401 94.7324C51.173 95.4165 51.249 96.1774 51.401 96.8623C51.325 96.1015 51.249 95.4167 51.477 94.6565C51.7051 94.0484 52.0852 93.4407 52.6173 93.0615Z" fill="#00730C"/>
<path opacity="0.5" d="M51.5531 90.9297C50.7929 91.3844 50.6409 92.373 50.7929 93.134C50.6409 92.373 50.7929 91.4605 51.5531 90.9297Z" fill="#00730C"/>
<path opacity="0.5" d="M53.6818 95.1938C52.9216 95.7247 52.3894 96.6363 52.1614 97.4726C51.8573 98.5369 51.9333 99.526 52.1614 100.591C52.0094 99.5261 51.9333 98.5371 52.2374 97.4728C52.5415 96.6367 52.9976 95.7248 53.6818 95.1938Z" fill="#00730C"/>
<path opacity="0.5" d="M55.2019 97.1753C54.2137 97.8577 53.6055 98.9214 53.2254 99.9855C52.8453 101.202 52.9213 102.419 53.2254 103.637C53.1494 103.028 53.0734 102.495 53.0734 101.887C53.0734 101.202 53.2254 100.518 53.3775 99.8337C53.6815 98.8455 54.3657 97.8581 55.2019 97.1753Z" fill="#00730C"/>
<path opacity="0.5" d="M56.2664 99.0029C55.2021 99.8373 54.594 101.053 54.2899 102.346C53.9098 103.714 54.2139 105.084 54.5179 106.378C54.2899 105.084 54.1378 103.791 54.3659 102.422C54.746 101.206 55.2781 99.9136 56.2664 99.0029Z" fill="#00730C"/>
</g>
<path opacity="0.5" d="M49.1967 93.6626C49.8048 93.8922 50.337 94.4258 50.7171 94.9592C51.0972 95.5686 51.3252 96.3298 51.4012 97.0146C51.3252 96.3298 51.2492 95.5689 50.8691 94.9595C50.413 94.426 49.8809 93.8923 49.1967 93.6626Z" fill="#00730C"/>
<path opacity="0.5" d="M49.6527 91.5339C50.4889 91.8401 50.793 92.6775 50.869 93.5144C50.793 92.6775 50.4889 91.8401 49.6527 91.5339Z" fill="#00730C"/>
<path opacity="0.5" d="M48.8165 95.7154C49.6527 96.0215 50.4129 96.7079 50.945 97.4697C51.5532 98.3839 51.8573 99.3735 52.0853 100.363C51.9333 99.2976 51.7052 98.3082 51.0211 97.3938C50.4889 96.632 49.7287 95.9456 48.8165 95.7154Z" fill="#00730C"/>
<path opacity="0.5" d="M47.904 98.2239C48.9683 98.3784 50.0325 98.9133 50.7927 99.6756C51.3248 100.133 51.7049 100.667 52.085 101.276C52.3891 101.809 52.6172 102.342 52.8452 102.875C52.4651 101.733 51.933 100.515 51.0208 99.6761C50.1846 98.9136 49.1203 98.3027 47.904 98.2239Z" fill="#00730C"/>
<path opacity="0.5" d="M48.8926 101.497C50.1849 101.652 51.4012 102.34 52.3134 103.178C53.3777 104.094 53.9858 105.312 54.5179 106.53C54.2899 105.997 54.1379 105.465 53.8338 104.931C53.4537 104.246 52.9976 103.712 52.4654 103.179C51.4772 102.264 50.2609 101.576 48.8926 101.497Z" fill="#00730C"/>
</g>
<path d="M50.7171 87.9608C50.7171 88.0368 50.6411 89.3299 50.6411 89.482C50.6411 90.2427 50.6411 91.0034 50.7171 91.7643C50.7931 93.438 50.9451 95.1119 51.2492 96.71C51.5533 98.3842 51.8574 100.058 52.3895 101.657C52.8456 103.18 53.4538 104.702 54.29 105.997C54.518 106.378 54.7461 106.759 54.9741 107.14C54.366 105.997 53.7578 104.779 53.3017 103.561C52.7696 102.038 52.2374 100.44 51.8574 98.8413C51.1732 95.6449 50.7171 92.4489 50.7171 89.1779C50.7171 88.8736 50.7171 88.5693 50.7171 88.2651C50.7171 88.2651 50.7171 88.0368 50.7171 87.9608Z" fill="#00730C"/>
<path d="M53.7579 117.863C53.7579 117.863 53.7579 117.863 53.8339 117.863C53.9099 117.863 53.9859 117.787 54.062 117.787C54.138 117.711 54.29 117.712 54.366 117.636C54.442 117.56 54.5941 117.484 54.7461 117.408C54.8221 117.332 54.8221 117.332 54.8982 117.257C54.9742 117.181 54.9742 117.181 55.0502 117.105C55.1262 117.029 55.1262 117.029 55.2022 116.953C55.2783 116.877 55.2783 116.877 55.2783 116.801C55.3543 116.649 55.4303 116.497 55.4303 116.497C55.4303 116.497 55.3543 116.649 55.2022 116.801C55.2022 116.877 55.1262 116.877 55.1262 116.953C55.0502 117.029 55.0502 117.029 54.9742 117.105C54.8982 117.181 54.8982 117.181 54.8221 117.256C54.7461 117.332 54.7461 117.332 54.6701 117.408C54.5941 117.484 54.4421 117.56 54.29 117.636C54.138 117.711 54.062 117.711 53.9859 117.787C53.9099 117.787 53.8339 117.863 53.7579 117.863C53.6819 117.862 53.6819 117.862 53.6819 117.862C53.6058 117.862 53.5298 117.938 53.5298 118.014C53.6059 117.862 53.6819 117.862 53.7579 117.863Z" fill="#00730C"/>
<path d="M71.1666 113.032C71.8508 113.338 72.5349 113.644 73.1431 114.026C73.4472 114.179 73.6752 114.331 73.9793 114.484C74.1313 114.56 74.2073 114.637 74.3594 114.713C74.4354 114.789 74.5874 114.866 74.6635 114.866C74.5114 114.866 74.2834 114.941 74.1313 114.941C73.9033 115.016 73.6752 115.016 73.4472 115.091C72.915 115.242 72.4589 115.393 71.9268 115.544C71.0906 115.847 64.629 119.104 63.4127 119.481C62.5005 119.783 61.4362 119.933 60.448 119.855C59.3077 119.7 58.1674 119.317 57.1792 118.631C56.495 118.173 55.7348 117.638 55.2027 116.953C55.1267 116.876 55.1267 116.8 55.1267 116.572C55.1267 116.268 55.2027 115.964 55.2027 115.583C55.5068 113.53 56.7231 111.707 58.6995 110.799C60.9041 109.815 63.5647 110.049 65.8453 110.662C66.7575 111.121 70.5584 112.727 71.1666 113.032Z" fill="#00730C"/>
<path d="M64.857 118.952C63.8688 119.406 62.8045 119.708 61.6643 119.858C59.4597 120.081 57.4072 119.011 55.8108 117.639C55.5828 117.41 55.3547 117.257 55.1267 117.029C55.0506 116.952 55.0506 116.952 55.2027 116.953C55.5828 116.801 56.0389 116.65 56.419 116.499C58.0154 115.97 59.6118 115.517 61.2842 115.14C64.553 114.463 67.8978 114.242 71.2426 114.478C72.3829 114.556 73.5232 114.711 74.6635 114.866C73.4472 114.939 66.3774 118.271 64.857 118.952Z" fill="#00730C"/>
<g opacity="0.5">
<g opacity="0.5">
<path opacity="0.5" d="M69.3422 116.147C69.0381 115.462 68.4299 115.08 67.7458 114.699C67.0616 114.393 66.3774 114.391 65.6172 114.466C66.3774 114.467 67.0616 114.469 67.7458 114.851C68.4299 115.08 69.0381 115.538 69.3422 116.147Z" fill="#00730C"/>
<path opacity="0.5" d="M71.5469 115.316C71.1668 114.554 70.2546 114.248 69.4184 114.322C70.2546 114.324 71.0908 114.554 71.5469 115.316Z" fill="#00730C"/>
<path opacity="0.5" d="M67.1376 116.979C66.6815 116.141 65.8453 115.531 65.009 115.225C64.0208 114.842 62.9566 114.764 61.8923 114.838C62.9566 114.84 63.9448 114.842 65.009 115.301C65.7692 115.607 66.6054 116.217 67.1376 116.979Z" fill="#00730C"/>
<path opacity="0.5" d="M64.9331 118.268C64.401 117.202 63.4127 116.515 62.3485 115.98C61.2082 115.445 59.9159 115.442 58.6996 115.515C59.3077 115.517 59.8399 115.442 60.448 115.595C61.1322 115.673 61.8163 115.903 62.4245 116.132C63.4887 116.591 64.401 117.354 64.9331 118.268Z" fill="#00730C"/>
<path opacity="0.5" d="M63.0326 119.1C62.3484 117.958 61.1321 117.27 59.9158 116.811C58.6235 116.352 57.1792 116.425 55.8868 116.574C57.2552 116.425 58.4715 116.504 59.8398 116.887C61.0561 117.346 62.2724 118.034 63.0326 119.1Z" fill="#00730C"/>
</g>
<path opacity="0.5" d="M69.0381 112.724C68.734 113.332 68.2019 113.787 67.5937 114.09C66.9096 114.469 66.2254 114.543 65.4652 114.541C66.1494 114.543 66.9096 114.545 67.5177 114.242C68.2019 113.787 68.734 113.332 69.0381 112.724Z" fill="#00730C"/>
<path opacity="0.5" d="M71.1666 113.337C70.7865 114.097 69.8743 114.399 69.1141 114.397C69.8743 114.399 70.7865 114.173 71.1666 113.337Z" fill="#00730C"/>
<path opacity="0.5" d="M67.1376 112.111C66.7575 112.947 65.9973 113.63 65.2371 114.008C64.3249 114.539 63.2606 114.689 62.1964 114.762C63.2606 114.765 64.3249 114.615 65.2371 114.084C65.9973 113.63 66.7575 112.947 67.1376 112.111Z" fill="#00730C"/>
<path opacity="0.5" d="M64.7051 110.889C64.477 111.877 63.7929 112.941 62.9566 113.623C62.4245 114.079 61.8164 114.458 61.2082 114.76C60.6761 114.988 60.144 115.138 59.5358 115.289C60.7521 115.064 61.9684 114.686 62.8806 113.851C63.7168 113.093 64.477 112.105 64.7051 110.889Z" fill="#00730C"/>
<path opacity="0.5" d="M61.3604 111.489C61.0563 112.782 60.2961 113.845 59.3079 114.756C58.3196 115.666 57.0273 116.196 55.735 116.573C56.3431 116.423 56.8753 116.272 57.4074 116.045C58.0916 115.742 58.6997 115.363 59.3079 114.908C60.2961 113.921 61.1323 112.858 61.3604 111.489Z" fill="#00730C"/>
</g>
<path d="M74.6635 114.79C74.5874 114.79 73.2951 114.559 73.1431 114.558C72.3829 114.481 71.6227 114.403 70.8625 114.325C69.1901 114.245 67.5177 114.242 65.9213 114.314C64.2489 114.386 62.5005 114.535 60.8281 114.911C59.3077 115.212 57.7113 115.589 56.2669 116.27C55.8868 116.498 55.4307 116.649 55.0507 116.876C56.2669 116.423 57.4832 115.969 58.7756 115.667C60.372 115.291 61.9683 114.914 63.6407 114.765C66.8335 114.392 70.1023 114.399 73.3711 114.711C73.6752 114.712 73.9793 114.788 74.2834 114.789C74.2834 114.789 74.5114 114.79 74.6635 114.79Z" fill="#00730C"/>
<path d="M65.693 104.272C66.4532 104.122 67.1374 103.971 67.8976 103.897C68.2016 103.821 68.5057 103.822 68.8858 103.747C69.0378 103.747 69.1139 103.747 69.2659 103.672C69.3419 103.672 69.494 103.672 69.646 103.672C69.494 103.748 69.4179 103.9 69.2659 104.052C69.1139 104.204 68.9618 104.432 68.8098 104.583C68.5057 104.963 68.2016 105.419 67.8976 105.875C67.3654 106.634 64.1727 113.093 63.3364 114.156C62.7283 114.991 62.0441 115.675 61.2079 116.205C60.2197 116.812 59.0034 117.113 57.8631 117.187C57.0269 117.261 56.1147 117.259 55.2785 117.029C55.1264 117.029 55.1264 116.952 55.0504 116.8C54.8984 116.572 54.6703 116.267 54.5183 115.962C53.53 114.134 53.454 111.928 54.5183 110.029C55.7346 107.901 57.9391 106.537 60.2197 105.705C61.0559 105.251 65.0089 104.347 65.693 104.272Z" fill="#00730C"/>
<path d="M64.1725 112.79C63.6404 113.701 62.9562 114.689 62.12 115.372C60.4476 116.813 58.2431 117.189 56.1145 117.032C55.8105 117.031 55.5064 116.954 55.2023 116.878C55.1263 116.877 55.1263 116.877 55.2023 116.725C55.4304 116.346 55.6584 115.966 55.8865 115.662C56.7987 114.295 57.863 112.928 59.0032 111.713C61.2078 109.208 63.7924 107.084 66.6051 105.264C67.5933 104.658 68.5816 104.051 69.5698 103.597C68.6576 104.432 65.0087 111.27 64.1725 112.79Z" fill="#00730C"/>
<g opacity="0.5">
<g opacity="0.5">
<path opacity="0.5" d="M66.0734 107.848C65.3892 107.542 64.705 107.541 63.9448 107.615C63.2607 107.766 62.6525 108.145 62.1204 108.676C62.7285 108.221 63.3367 107.842 64.0209 107.691C64.781 107.541 65.4652 107.542 66.0734 107.848Z" fill="#00730C"/>
<path opacity="0.5" d="M67.3656 105.797C66.6054 105.415 65.6932 105.718 65.085 106.249C65.7692 105.794 66.6054 105.491 67.3656 105.797Z" fill="#00730C"/>
<path opacity="0.5" d="M64.7811 109.823C63.9449 109.441 62.8807 109.438 62.0445 109.665C60.9802 109.891 60.144 110.497 59.3078 111.256C60.144 110.573 60.9802 110.043 62.0445 109.741C62.9567 109.515 63.9449 109.517 64.7811 109.823Z" fill="#00730C"/>
<path opacity="0.5" d="M63.7928 112.103C62.7286 111.569 61.5123 111.566 60.372 111.792C59.1557 112.017 58.0914 112.775 57.1792 113.61C57.6353 113.231 58.0914 112.851 58.6236 112.624C59.2317 112.322 59.9159 112.019 60.6001 111.868C61.5883 111.642 62.8806 111.721 63.7928 112.103Z" fill="#00730C"/>
<path opacity="0.5" d="M62.8046 113.927C61.5883 113.392 60.2199 113.541 58.9276 113.918C57.5593 114.295 56.495 115.206 55.5828 116.193C56.571 115.282 57.6353 114.524 58.9276 114.07C60.1439 113.769 61.5122 113.543 62.8046 113.927Z" fill="#00730C"/>
</g>
<path opacity="0.5" d="M63.7926 105.181C63.8686 105.866 63.7166 106.55 63.4125 107.158C63.0324 107.842 62.5763 108.297 61.9681 108.752C62.5763 108.373 63.1084 107.918 63.4125 107.234C63.7926 106.626 63.9446 105.942 63.7926 105.181Z" fill="#00730C"/>
<path opacity="0.5" d="M65.921 104.501C66.0731 105.339 65.5409 106.098 64.8568 106.553C65.5409 106.098 66.0731 105.339 65.921 104.501Z" fill="#00730C"/>
<path opacity="0.5" d="M61.8921 105.862C62.0442 106.775 61.8921 107.763 61.512 108.599C61.0559 109.587 60.3717 110.346 59.5355 111.029C60.3717 110.346 61.1319 109.663 61.588 108.675C61.9681 107.763 62.1202 106.775 61.8921 105.862Z" fill="#00730C"/>
<path opacity="0.5" d="M59.3076 106.312C59.6877 107.302 59.7637 108.519 59.5356 109.508C59.3836 110.192 59.1555 110.8 58.7754 111.484C58.4714 112.015 58.0913 112.471 57.7872 112.927C58.6234 112.016 59.3836 111.029 59.6116 109.736C59.7637 108.671 59.8397 107.378 59.3076 106.312Z" fill="#00730C"/>
<path opacity="0.5" d="M56.9508 108.817C57.4829 109.959 57.4829 111.405 57.2548 112.621C57.0268 113.99 56.2666 115.129 55.5064 116.269C55.8865 115.813 56.2666 115.358 56.5707 114.826C56.9508 114.218 57.2548 113.458 57.4069 112.774C57.5589 111.405 57.5589 110.036 56.9508 108.817Z" fill="#00730C"/>
</g>
<path d="M69.5698 103.597C69.4938 103.597 68.3535 104.279 68.2015 104.355C67.5173 104.734 66.9092 105.113 66.301 105.568C64.9327 106.478 63.5644 107.463 62.272 108.449C60.9797 109.512 59.6874 110.65 58.5471 111.94C57.4829 113.079 56.4946 114.37 55.7344 115.738C55.5064 116.118 55.2783 116.497 55.1263 116.953C55.8105 115.89 56.5706 114.751 57.4068 113.764C58.4711 112.473 59.5354 111.258 60.7517 110.12C63.1082 107.919 65.6929 105.947 68.5056 104.279C68.7336 104.128 69.0377 103.976 69.2658 103.825C69.2658 103.825 69.4938 103.673 69.5698 103.597Z" fill="#00730C"/>
<path d="M38.0981 125.892C38.0981 125.892 38.0221 125.968 37.8701 126.119C37.718 126.195 37.49 126.347 37.2619 126.498C37.1859 126.574 37.0339 126.574 36.9578 126.65C36.8818 126.65 36.8818 126.726 36.8058 126.726C36.7298 126.725 36.7298 126.725 36.6538 126.801C36.5777 126.801 36.5777 126.801 36.5017 126.801C36.4257 126.801 36.4257 126.801 36.4257 126.801C36.3497 126.801 36.3497 126.801 36.3497 126.801C36.3497 126.801 36.3497 126.801 36.4257 126.801L36.5017 126.801C36.5017 126.801 36.5777 126.801 36.6538 126.801C36.7298 126.801 36.7298 126.801 36.8058 126.802C36.8818 126.802 36.8818 126.802 36.9578 126.726C37.1099 126.726 37.1859 126.65 37.3379 126.575C37.794 126.347 38.2501 126.044 38.2501 126.044C38.2501 126.044 38.3262 125.968 38.2501 125.968C38.1741 125.892 38.1741 125.892 38.0981 125.892Z" fill="#00730C"/>
<path d="M45.3957 121.724C45.7758 121.801 46.1559 121.802 46.536 121.879C46.688 121.879 46.8401 121.955 47.0681 121.956C47.1442 121.956 47.2202 121.956 47.2962 122.032C47.3722 122.032 47.4482 122.109 47.4482 122.109C47.3722 122.109 47.2962 122.184 47.2202 122.26C47.1442 122.336 46.9921 122.412 46.9161 122.488C46.688 122.64 46.46 122.791 46.2319 122.943C45.8518 123.246 43.1152 125.903 42.507 126.282C42.0509 126.585 41.5948 126.812 41.0627 126.887C40.4545 127.038 39.8464 126.96 39.2382 126.807C38.7821 126.654 38.326 126.501 37.9459 126.272C37.8699 126.195 37.8699 126.195 37.8699 126.119C37.7939 125.967 37.7939 125.815 37.7939 125.587C37.6418 124.521 37.9459 123.381 38.8581 122.622C39.8464 121.788 41.2147 121.486 42.431 121.489C42.8871 121.414 45.0156 121.647 45.3957 121.724Z" fill="#00730C"/>
<path d="M43.1154 125.75C42.6593 126.13 42.2032 126.433 41.671 126.66C40.6068 127.114 39.3905 126.883 38.3262 126.424C38.1742 126.348 38.0221 126.271 37.8701 126.195C37.7941 126.195 37.8701 126.195 37.8701 126.119C38.0221 125.967 38.2502 125.816 38.4022 125.664C39.0864 125.133 39.8466 124.678 40.6828 124.223C42.2032 123.39 43.8756 122.709 45.624 122.333C46.2322 122.182 46.8403 122.107 47.3724 122.032C46.8403 122.335 43.7996 125.143 43.1154 125.75Z" fill="#00730C"/>
<g opacity="0.5">
<g opacity="0.5">
<path opacity="0.5" d="M44.9396 123.548C44.6355 123.243 44.3314 123.167 43.9513 123.09C43.5712 123.013 43.1911 123.164 42.8111 123.316C43.1911 123.164 43.5712 123.089 43.9513 123.166C44.3314 123.167 44.7115 123.32 44.9396 123.548Z" fill="#00730C"/>
<path opacity="0.5" d="M45.9279 122.79C45.6238 122.485 45.0916 122.484 44.7116 122.635C45.1677 122.484 45.6238 122.485 45.9279 122.79Z" fill="#00730C"/>
<path opacity="0.5" d="M43.9514 124.383C43.5713 124.078 43.1152 123.849 42.5831 123.848C41.9749 123.77 41.4428 123.921 40.9107 124.148C41.4428 123.997 41.9749 123.846 42.5071 123.924C43.1152 123.849 43.6473 124.078 43.9514 124.383Z" fill="#00730C"/>
<path opacity="0.5" d="M43.0392 125.294C42.5831 124.836 41.9749 124.607 41.3668 124.529C40.6826 124.452 40.0745 124.603 39.4663 124.905C39.7704 124.83 40.0745 124.679 40.3785 124.679C40.7586 124.604 41.1387 124.605 41.5188 124.682C42.0509 124.683 42.6591 124.913 43.0392 125.294Z" fill="#00730C"/>
<path opacity="0.5" d="M42.203 126.053C41.6709 125.595 40.9867 125.366 40.3025 125.364C39.5424 125.286 38.8582 125.589 38.25 125.892C38.9342 125.665 39.5424 125.438 40.3025 125.44C40.9107 125.518 41.6709 125.595 42.203 126.053Z" fill="#00730C"/>
</g>
<path opacity="0.5" d="M44.3314 121.874C44.2554 122.254 44.0273 122.558 43.7993 122.786C43.4952 123.089 43.1911 123.241 42.811 123.316C43.1911 123.241 43.5712 123.089 43.7993 122.786C44.0273 122.558 44.2554 122.254 44.3314 121.874Z" fill="#00730C"/>
<path opacity="0.5" d="M45.472 121.876C45.396 122.332 45.0159 122.56 44.5598 122.711C45.0159 122.636 45.396 122.332 45.472 121.876Z" fill="#00730C"/>
<path opacity="0.5" d="M43.1912 121.872C43.1151 122.328 42.8111 122.784 42.507 123.163C42.1269 123.543 41.5948 123.846 41.0626 123.997C41.5948 123.846 42.1269 123.619 42.507 123.163C42.8871 122.86 43.1912 122.328 43.1912 121.872Z" fill="#00730C"/>
<path opacity="0.5" d="M41.8228 121.64C41.8228 122.173 41.6708 122.857 41.3667 123.313C41.1386 123.616 40.9106 123.92 40.6825 124.148C40.4545 124.376 40.1504 124.527 39.9223 124.679C40.4545 124.376 41.0626 123.997 41.3667 123.389C41.6708 122.857 41.8988 122.249 41.8228 121.64Z" fill="#00730C"/>
<path opacity="0.5" d="M40.2264 122.473C40.3024 123.158 39.9983 123.842 39.6943 124.45C39.3142 125.057 38.782 125.513 38.1739 125.968C38.478 125.816 38.706 125.665 38.9341 125.437C39.2382 125.209 39.4662 124.906 39.6943 124.526C40.0744 123.842 40.3024 123.158 40.2264 122.473Z" fill="#00730C"/>
</g>
<path d="M47.4482 122.109C47.3722 122.109 46.6881 122.259 46.612 122.259C46.2319 122.334 45.8518 122.41 45.4718 122.485C44.6355 122.711 43.7993 122.938 42.9631 123.24C42.1269 123.542 41.2907 123.845 40.4545 124.299C39.6943 124.678 39.0102 125.133 38.326 125.664C38.174 125.816 37.9459 125.967 37.7939 126.119C38.326 125.664 38.8581 125.285 39.4663 124.906C40.2265 124.451 40.9867 123.996 41.8229 123.694C43.4192 123.013 45.0156 122.484 46.6881 122.183C46.8401 122.184 46.9921 122.108 47.1442 122.108C47.2962 122.109 47.3722 122.109 47.4482 122.109Z" fill="#00730C"/>
<path d="M40.4548 128.179C40.4548 128.179 40.0747 128.026 39.5426 127.796C38.9345 127.567 38.1743 127.337 37.4141 127.183C37.034 127.106 36.5779 127.029 36.1978 126.952C35.9697 126.952 35.8177 126.951 35.6657 126.875C35.5136 126.875 35.3616 126.874 35.1335 126.874C34.9815 126.873 34.8295 126.873 34.7534 126.949C34.6014 126.949 34.5254 126.948 34.4494 127.024C34.2973 127.1 34.1453 127.1 34.1453 127.1C34.1453 127.1 34.2213 127.1 34.4494 127.024C34.5254 127.024 34.6014 126.949 34.7534 126.949C34.9055 126.949 34.9815 126.873 35.1335 126.874C35.2856 126.874 35.4376 126.798 35.6657 126.799C35.8177 126.799 36.0458 126.8 36.1978 126.8C36.5779 126.801 37.034 126.878 37.4141 126.955C39.0865 127.187 40.6069 127.799 40.6069 127.799C40.7589 127.875 40.7589 127.951 40.7589 128.103C40.7589 128.179 40.6069 128.179 40.4548 128.179Z" fill="#00730C"/>
<path d="M59.6114 135.828C60.5237 135.602 61.3599 135.3 62.2721 134.998C62.6522 134.846 63.0323 134.771 63.4124 134.62C63.5644 134.544 63.7164 134.468 63.8685 134.469C64.0205 134.393 64.1725 134.317 64.3246 134.317C64.0965 134.317 63.8685 134.164 63.7164 134.088C63.4124 134.011 63.1843 133.858 62.8802 133.782C62.2721 133.552 61.74 133.247 61.1318 132.941C60.1436 132.406 52.8458 127.141 51.4014 126.378C50.2611 125.842 49.1209 125.384 47.8285 125.381C46.3842 125.301 44.9398 125.602 43.5715 126.208C42.5833 126.662 41.595 127.116 40.7588 127.875C40.6068 127.951 40.6068 128.103 40.6068 128.255C40.5308 128.636 40.5308 129.016 40.5308 129.472C40.5308 132.059 41.671 134.571 43.8756 136.022C46.3842 137.701 49.729 137.936 52.6177 137.563C53.91 137.413 58.8512 136.055 59.6114 135.828Z" fill="#00730C"/>
<path d="M52.9976 127.294C51.8573 126.531 50.565 125.919 49.2727 125.612C46.612 124.921 43.8754 125.752 41.6708 127.193C41.3668 127.42 40.9867 127.571 40.7586 127.875C40.6826 127.951 40.6826 127.951 40.8346 128.028C41.2907 128.333 41.7468 128.562 42.279 128.791C44.1034 129.784 46.0039 130.625 47.9804 131.39C51.8573 132.844 55.9623 133.766 60.1434 134.156C61.5877 134.311 62.956 134.314 64.4004 134.317C62.804 133.934 54.822 128.439 52.9976 127.294Z" fill="#00730C"/>
<g opacity="0.5">
<g opacity="0.5">
<path opacity="0.5" d="M58.015 131.641C57.4829 132.4 56.6467 132.779 55.8105 133.081C54.8983 133.307 54.0621 133.229 53.1498 132.999C54.0621 133.153 54.9743 133.231 55.8865 133.005C56.7227 132.779 57.4829 132.324 58.015 131.641Z" fill="#00730C"/>
<path opacity="0.5" d="M60.6 133.168C59.9158 134.079 58.7755 134.153 57.7873 133.922C58.7755 134.153 59.9158 134.003 60.6 133.168Z" fill="#00730C"/>
<path opacity="0.5" d="M55.4303 130.19C54.7461 131.101 53.6058 131.707 52.4656 131.933C51.1732 132.234 49.8809 132.079 48.5886 131.772C49.8809 132.003 51.1732 132.158 52.4656 131.857C53.5298 131.631 54.6701 131.025 55.4303 130.19Z" fill="#00730C"/>
<path opacity="0.5" d="M52.9979 128.207C52.1617 129.422 50.7174 130.103 49.349 130.481C47.8287 130.934 46.3083 130.702 44.7879 130.318C45.4721 130.472 46.2323 130.626 46.9164 130.627C47.8287 130.629 48.6649 130.555 49.5011 130.329C50.8694 130.028 52.1617 129.27 52.9979 128.207Z" fill="#00730C"/>
<path opacity="0.5" d="M50.7935 126.756C49.7292 128.047 48.1328 128.652 46.5364 129.029C44.864 129.406 43.1156 129.021 41.5192 128.485C43.1156 128.869 44.712 129.101 46.3844 128.877C47.9808 128.576 49.6532 127.971 50.7935 126.756Z" fill="#00730C"/>
</g>
<path opacity="0.5" d="M57.0269 135.822C56.7228 135.061 56.1907 134.375 55.5065 133.841C54.7463 133.307 53.9101 133.077 52.9219 132.846C53.8341 132.924 54.6703 133.155 55.4305 133.689C56.1146 134.299 56.7988 134.985 57.0269 135.822Z" fill="#00730C"/>
<path opacity="0.5" d="M59.7634 135.448C59.3833 134.382 58.3951 133.924 57.4068 133.769C58.3951 133.924 59.4594 134.382 59.7634 135.448Z" fill="#00730C"/>
<path opacity="0.5" d="M54.5181 136.197C54.214 135.132 53.3778 134.141 52.4656 133.454C51.4013 132.615 50.185 132.232 48.8927 131.925C50.185 132.156 51.4773 132.539 52.5416 133.378C53.4538 134.065 54.214 135.056 54.5181 136.197Z" fill="#00730C"/>
<path opacity="0.5" d="M51.3254 137.179C51.1734 135.885 50.5653 134.515 49.653 133.524C49.0449 132.838 48.4367 132.304 47.6765 131.77C47.0684 131.388 46.3842 131.082 45.7001 130.777C47.1444 131.312 48.5128 132 49.501 133.219C50.5653 134.363 51.3254 135.734 51.3254 137.179Z" fill="#00730C"/>
<path opacity="0.5" d="M47.2964 135.801C47.2204 134.203 46.3842 132.68 45.3959 131.461C44.3317 130.089 42.8873 129.249 41.3669 128.485C42.0511 128.791 42.7353 129.096 43.3434 129.478C44.1036 129.936 44.8638 130.623 45.4719 131.309C46.4602 132.604 47.2964 134.127 47.2964 135.801Z" fill="#00730C"/>
</g>
<path d="M64.2485 134.317C64.1725 134.317 62.5001 134.313 62.3481 134.313C61.4358 134.235 60.4476 134.233 59.5354 134.079C57.4829 133.922 55.4304 133.613 53.3779 133.152C51.3254 132.691 49.1969 132.23 47.2204 131.465C45.3959 130.776 40.9868 128.256 40.4547 127.951C41.8991 128.791 43.2674 129.554 44.7878 130.166C46.6882 130.931 48.5887 131.696 50.5652 132.233C54.4421 133.307 58.4711 134 62.5001 134.237C62.8802 134.238 63.2603 134.315 63.6404 134.316C63.8684 134.316 64.1725 134.317 64.2485 134.317Z" fill="#00730C"/>
</svg>
