<svg width="330" height="408" viewBox="0 0 330 408" fill="none" xmlns="http://www.w3.org/2000/svg">
<rect width="330" height="408" rx="10" fill="url(#paint0_linear_11482_3892)"/>
<path d="M98.98 171C97.892 171 97.348 170.456 97.348 169.368V155.712C97.348 154.624 97.892 154.08 98.98 154.08H103.636C106.468 154.08 108.652 154.808 110.188 156.264C111.74 157.72 112.516 159.808 112.516 162.528C112.516 165.232 111.74 167.32 110.188 168.792C108.652 170.264 106.468 171 103.636 171H98.98ZM100.42 168.456H103.444C107.348 168.456 109.3 166.48 109.3 162.528C109.3 158.592 107.348 156.624 103.444 156.624H100.42V168.456ZM120.693 171.24C119.477 171.24 118.421 170.992 117.525 170.496C116.629 170 115.933 169.296 115.437 168.384C114.941 167.456 114.693 166.368 114.693 165.12C114.693 163.872 114.941 162.792 115.437 161.88C115.933 160.968 116.629 160.264 117.525 159.768C118.421 159.272 119.477 159.024 120.693 159.024C121.909 159.024 122.965 159.272 123.861 159.768C124.757 160.264 125.453 160.968 125.949 161.88C126.445 162.792 126.693 163.872 126.693 165.12C126.693 166.368 126.445 167.456 125.949 168.384C125.453 169.296 124.757 170 123.861 170.496C122.965 170.992 121.909 171.24 120.693 171.24ZM120.693 168.96C121.589 168.96 122.309 168.64 122.853 168C123.397 167.344 123.669 166.384 123.669 165.12C123.669 163.84 123.397 162.888 122.853 162.264C122.309 161.624 121.589 161.304 120.693 161.304C119.797 161.304 119.077 161.624 118.533 162.264C117.989 162.888 117.717 163.84 117.717 165.12C117.717 166.384 117.989 167.344 118.533 168C119.077 168.64 119.797 168.96 120.693 168.96ZM130.705 171.192C129.681 171.192 129.169 170.68 129.169 169.656V160.584C129.169 159.576 129.657 159.072 130.633 159.072C131.609 159.072 132.097 159.576 132.097 160.584V161.328C132.673 159.952 133.905 159.184 135.793 159.024C136.481 158.944 136.865 159.336 136.945 160.2C137.025 161.048 136.609 161.52 135.697 161.616L135.169 161.664C133.201 161.856 132.217 162.864 132.217 164.688V169.656C132.217 170.68 131.713 171.192 130.705 171.192ZM140.056 156.864C139.496 156.864 139.056 156.728 138.736 156.456C138.432 156.168 138.28 155.776 138.28 155.28C138.28 154.768 138.432 154.376 138.736 154.104C139.056 153.832 139.496 153.696 140.056 153.696C141.24 153.696 141.832 154.224 141.832 155.28C141.832 156.336 141.24 156.864 140.056 156.864ZM140.056 171.168C139.576 171.168 139.208 171.024 138.952 170.736C138.696 170.448 138.568 170.048 138.568 169.536V160.728C138.568 159.64 139.064 159.096 140.056 159.096C141.064 159.096 141.568 159.64 141.568 160.728V169.536C141.568 170.048 141.44 170.448 141.184 170.736C140.928 171.024 140.552 171.168 140.056 171.168ZM148.981 171.24C148.293 171.24 147.565 171.168 146.797 171.024C146.029 170.88 145.341 170.632 144.733 170.28C144.397 170.088 144.189 169.856 144.109 169.584C144.029 169.296 144.037 169.032 144.133 168.792C144.245 168.536 144.421 168.352 144.661 168.24C144.917 168.128 145.213 168.152 145.549 168.312C146.189 168.616 146.789 168.832 147.349 168.96C147.909 169.072 148.461 169.128 149.005 169.128C149.773 169.128 150.341 169 150.709 168.744C151.093 168.472 151.285 168.12 151.285 167.688C151.285 167.016 150.789 166.584 149.797 166.392L147.397 165.936C145.365 165.552 144.349 164.496 144.349 162.768C144.349 162 144.557 161.336 144.973 160.776C145.405 160.216 145.997 159.784 146.749 159.48C147.501 159.176 148.365 159.024 149.341 159.024C150.749 159.024 152.005 159.336 153.109 159.96C153.413 160.12 153.589 160.344 153.637 160.632C153.701 160.904 153.669 161.168 153.541 161.424C153.429 161.664 153.245 161.84 152.989 161.952C152.733 162.048 152.437 162.016 152.101 161.856C151.605 161.6 151.125 161.416 150.661 161.304C150.213 161.192 149.781 161.136 149.365 161.136C148.581 161.136 147.997 161.272 147.613 161.544C147.245 161.816 147.061 162.176 147.061 162.624C147.061 163.328 147.517 163.76 148.429 163.92L150.829 164.376C151.869 164.568 152.653 164.92 153.181 165.432C153.725 165.944 153.997 166.632 153.997 167.496C153.997 168.664 153.541 169.584 152.629 170.256C151.717 170.912 150.501 171.24 148.981 171.24ZM162.463 171.168C162.015 171.184 161.663 171.064 161.407 170.808C161.151 170.552 161.023 170.224 161.023 169.824C161.023 169.52 161.119 169.256 161.311 169.032C161.487 168.792 161.751 168.664 162.103 168.648L162.823 168.6C164.247 168.504 164.959 167.72 164.959 166.248V155.448C164.959 154.408 165.471 153.888 166.495 153.888C167.519 153.888 168.031 154.408 168.031 155.448V166.224C168.031 167.728 167.631 168.896 166.831 169.728C166.031 170.56 164.847 171.024 163.279 171.12L162.463 171.168ZM176.756 171.24C175.54 171.24 174.484 170.992 173.588 170.496C172.692 170 171.996 169.296 171.5 168.384C171.004 167.456 170.756 166.368 170.756 165.12C170.756 163.872 171.004 162.792 171.5 161.88C171.996 160.968 172.692 160.264 173.588 159.768C174.484 159.272 175.54 159.024 176.756 159.024C177.972 159.024 179.028 159.272 179.924 159.768C180.82 160.264 181.516 160.968 182.012 161.88C182.508 162.792 182.756 163.872 182.756 165.12C182.756 166.368 182.508 167.456 182.012 168.384C181.516 169.296 180.82 170 179.924 170.496C179.028 170.992 177.972 171.24 176.756 171.24ZM176.756 168.96C177.652 168.96 178.372 168.64 178.916 168C179.46 167.344 179.732 166.384 179.732 165.12C179.732 163.84 179.46 162.888 178.916 162.264C178.372 161.624 177.652 161.304 176.756 161.304C175.86 161.304 175.14 161.624 174.596 162.264C174.052 162.888 173.78 163.84 173.78 165.12C173.78 166.384 174.052 167.344 174.596 168C175.14 168.64 175.86 168.96 176.756 168.96ZM186.768 171.192C185.744 171.192 185.232 170.68 185.232 169.656V160.584C185.232 159.576 185.72 159.072 186.696 159.072C187.672 159.072 188.16 159.576 188.16 160.584V161.328C188.736 159.952 189.968 159.184 191.856 159.024C192.544 158.944 192.928 159.336 193.008 160.2C193.088 161.048 192.672 161.52 191.76 161.616L191.232 161.664C189.264 161.856 188.28 162.864 188.28 164.688V169.656C188.28 170.68 187.776 171.192 186.768 171.192ZM198.955 171.24C197.931 171.24 197.027 170.992 196.243 170.496C195.475 170 194.875 169.296 194.443 168.384C194.011 167.456 193.795 166.368 193.795 165.12C193.795 163.856 194.011 162.776 194.443 161.88C194.875 160.968 195.475 160.264 196.243 159.768C197.027 159.272 197.931 159.024 198.955 159.024C199.787 159.024 200.539 159.208 201.211 159.576C201.883 159.944 202.387 160.432 202.723 161.04V155.4C202.723 154.392 203.219 153.888 204.211 153.888C205.219 153.888 205.723 154.392 205.723 155.4V169.656C205.723 170.68 205.227 171.192 204.235 171.192C203.243 171.192 202.747 170.68 202.747 169.656V169.152C202.411 169.792 201.907 170.304 201.235 170.688C200.563 171.056 199.803 171.24 198.955 171.24ZM199.795 168.96C200.691 168.96 201.411 168.64 201.955 168C202.499 167.344 202.771 166.384 202.771 165.12C202.771 163.84 202.499 162.888 201.955 162.264C201.411 161.624 200.691 161.304 199.795 161.304C198.899 161.304 198.179 161.624 197.635 162.264C197.091 162.888 196.819 163.84 196.819 165.12C196.819 166.384 197.091 167.344 197.635 168C198.179 168.64 198.899 168.96 199.795 168.96ZM212.697 171.24C211.849 171.24 211.089 171.08 210.417 170.76C209.761 170.424 209.241 169.976 208.857 169.416C208.489 168.856 208.305 168.224 208.305 167.52C208.305 166.656 208.529 165.976 208.977 165.48C209.425 164.968 210.153 164.6 211.161 164.376C212.169 164.152 213.521 164.04 215.217 164.04H216.057V163.536C216.057 162.736 215.881 162.16 215.529 161.808C215.177 161.456 214.585 161.28 213.753 161.28C213.289 161.28 212.785 161.336 212.241 161.448C211.713 161.56 211.153 161.752 210.561 162.024C210.177 162.2 209.857 162.224 209.601 162.096C209.345 161.952 209.169 161.736 209.073 161.448C208.993 161.144 209.009 160.84 209.121 160.536C209.249 160.232 209.497 160.008 209.865 159.864C210.601 159.56 211.305 159.344 211.977 159.216C212.665 159.088 213.289 159.024 213.849 159.024C215.561 159.024 216.833 159.424 217.665 160.224C218.497 161.008 218.913 162.232 218.913 163.896V169.656C218.913 170.68 218.449 171.192 217.521 171.192C216.577 171.192 216.105 170.68 216.105 169.656V169.128C215.833 169.784 215.401 170.304 214.809 170.688C214.217 171.056 213.513 171.24 212.697 171.24ZM213.321 169.176C214.105 169.176 214.753 168.904 215.265 168.36C215.793 167.816 216.057 167.128 216.057 166.296V165.768H215.241C213.737 165.768 212.689 165.888 212.097 166.128C211.521 166.352 211.233 166.768 211.233 167.376C211.233 167.904 211.417 168.336 211.785 168.672C212.153 169.008 212.665 169.176 213.321 169.176ZM223.446 171.192C222.454 171.192 221.958 170.68 221.958 169.656V160.584C221.958 159.576 222.446 159.072 223.422 159.072C224.398 159.072 224.886 159.576 224.886 160.584V161.088C225.286 160.416 225.822 159.904 226.494 159.552C227.182 159.2 227.95 159.024 228.798 159.024C231.566 159.024 232.95 160.632 232.95 163.848V169.656C232.95 170.68 232.454 171.192 231.462 171.192C230.454 171.192 229.95 170.68 229.95 169.656V163.992C229.95 163.08 229.774 162.416 229.422 162C229.086 161.584 228.558 161.376 227.838 161.376C226.958 161.376 226.254 161.656 225.726 162.216C225.214 162.76 224.958 163.488 224.958 164.4V169.656C224.958 170.68 224.454 171.192 223.446 171.192Z" fill="white"/>
<path d="M109.876 202C109.336 202 109.066 201.73 109.066 201.19V190.12C109.066 189.58 109.336 189.31 109.876 189.31H113.35C115.402 189.31 116.986 189.856 118.102 190.948C119.218 192.028 119.776 193.594 119.776 195.646C119.776 197.698 119.218 199.27 118.102 200.362C116.986 201.454 115.402 202 113.35 202H109.876ZM110.542 200.74H113.242C116.554 200.74 118.21 199.042 118.21 195.646C118.21 192.262 116.554 190.57 113.242 190.57H110.542V200.74ZM126.169 202.162C124.789 202.162 123.697 201.76 122.893 200.956C122.089 200.14 121.687 199.036 121.687 197.644C121.687 196.744 121.867 195.952 122.227 195.268C122.587 194.572 123.079 194.038 123.703 193.666C124.339 193.282 125.071 193.09 125.899 193.09C127.087 193.09 128.017 193.474 128.689 194.242C129.361 194.998 129.697 196.042 129.697 197.374C129.697 197.746 129.487 197.932 129.067 197.932H123.109C123.157 198.928 123.445 199.69 123.973 200.218C124.501 200.734 125.233 200.992 126.169 200.992C126.565 200.992 126.967 200.944 127.375 200.848C127.783 200.74 128.179 200.554 128.563 200.29C128.839 200.11 129.067 200.074 129.247 200.182C129.439 200.29 129.535 200.458 129.535 200.686C129.547 200.902 129.427 201.094 129.175 201.262C128.779 201.55 128.305 201.772 127.753 201.928C127.213 202.084 126.685 202.162 126.169 202.162ZM125.935 194.17C125.107 194.17 124.453 194.428 123.973 194.944C123.493 195.46 123.211 196.138 123.127 196.978H128.437C128.401 196.09 128.167 195.4 127.735 194.908C127.315 194.416 126.715 194.17 125.935 194.17ZM134.759 202.162C134.219 202.162 133.673 202.096 133.121 201.964C132.581 201.82 132.077 201.592 131.609 201.28C131.393 201.148 131.285 200.98 131.285 200.776C131.297 200.56 131.381 200.392 131.537 200.272C131.693 200.152 131.891 200.152 132.131 200.272C132.599 200.56 133.049 200.764 133.481 200.884C133.925 200.992 134.363 201.046 134.795 201.046C135.479 201.046 135.995 200.92 136.343 200.668C136.691 200.416 136.865 200.074 136.865 199.642C136.865 199.306 136.751 199.042 136.523 198.85C136.295 198.646 135.935 198.49 135.443 198.382L133.805 198.022C132.317 197.698 131.573 196.93 131.573 195.718C131.573 194.926 131.885 194.29 132.509 193.81C133.145 193.33 133.973 193.09 134.993 193.09C135.509 193.09 136.007 193.162 136.487 193.306C136.967 193.438 137.399 193.654 137.783 193.954C137.987 194.098 138.077 194.272 138.053 194.476C138.029 194.68 137.933 194.842 137.765 194.962C137.609 195.07 137.417 195.052 137.189 194.908C136.829 194.668 136.463 194.494 136.091 194.386C135.719 194.266 135.353 194.206 134.993 194.206C134.321 194.206 133.811 194.338 133.463 194.602C133.115 194.866 132.941 195.214 132.941 195.646C132.941 196.318 133.385 196.75 134.273 196.942L135.911 197.284C136.679 197.452 137.261 197.722 137.657 198.094C138.053 198.454 138.251 198.946 138.251 199.57C138.251 200.374 137.933 201.01 137.297 201.478C136.661 201.934 135.815 202.162 134.759 202.162ZM141.193 191.146C140.557 191.146 140.239 190.846 140.239 190.246C140.239 189.658 140.557 189.364 141.193 189.364C141.829 189.364 142.147 189.658 142.147 190.246C142.147 190.846 141.829 191.146 141.193 191.146ZM141.193 202.09C140.713 202.09 140.473 201.826 140.473 201.298V193.936C140.473 193.42 140.713 193.162 141.193 193.162C141.685 193.162 141.931 193.42 141.931 193.936V201.298C141.931 201.826 141.685 202.09 141.193 202.09ZM148.527 205.402C147.891 205.402 147.267 205.324 146.655 205.168C146.055 205.024 145.509 204.79 145.017 204.466C144.837 204.358 144.729 204.226 144.693 204.07C144.669 203.926 144.693 203.782 144.765 203.638C144.837 203.506 144.939 203.41 145.071 203.35C145.215 203.29 145.365 203.302 145.521 203.386C146.049 203.71 146.553 203.932 147.033 204.052C147.513 204.172 147.987 204.232 148.455 204.232C150.183 204.232 151.047 203.344 151.047 201.568V200.02C150.795 200.572 150.399 201.01 149.859 201.334C149.331 201.646 148.725 201.802 148.041 201.802C147.237 201.802 146.541 201.616 145.953 201.244C145.365 200.872 144.909 200.362 144.585 199.714C144.273 199.054 144.117 198.292 144.117 197.428C144.117 196.564 144.273 195.808 144.585 195.16C144.909 194.5 145.365 193.99 145.953 193.63C146.541 193.27 147.237 193.09 148.041 193.09C148.725 193.09 149.331 193.24 149.859 193.54C150.387 193.84 150.777 194.26 151.029 194.8V193.864C151.029 193.372 151.269 193.126 151.749 193.126C152.229 193.126 152.469 193.372 152.469 193.864V201.37C152.469 202.714 152.133 203.722 151.461 204.394C150.801 205.066 149.823 205.402 148.527 205.402ZM148.311 200.614C149.151 200.614 149.817 200.326 150.309 199.75C150.801 199.174 151.047 198.4 151.047 197.428C151.047 196.456 150.801 195.688 150.309 195.124C149.817 194.548 149.151 194.26 148.311 194.26C147.483 194.26 146.823 194.548 146.331 195.124C145.839 195.688 145.593 196.456 145.593 197.428C145.593 198.4 145.839 199.174 146.331 199.75C146.823 200.326 147.483 200.614 148.311 200.614ZM155.924 202.126C155.444 202.126 155.204 201.874 155.204 201.37V193.864C155.204 193.372 155.438 193.126 155.906 193.126C156.386 193.126 156.626 193.372 156.626 193.864V194.746C156.914 194.194 157.322 193.78 157.85 193.504C158.378 193.228 158.972 193.09 159.632 193.09C161.708 193.09 162.746 194.242 162.746 196.546V201.37C162.746 201.874 162.506 202.126 162.026 202.126C161.534 202.126 161.288 201.874 161.288 201.37V196.636C161.288 195.82 161.126 195.226 160.802 194.854C160.49 194.47 159.986 194.278 159.29 194.278C158.486 194.278 157.844 194.53 157.364 195.034C156.896 195.526 156.662 196.186 156.662 197.014V201.37C156.662 201.874 156.416 202.126 155.924 202.126ZM171.083 202C170.543 202 170.273 201.73 170.273 201.19V190.12C170.273 189.58 170.543 189.31 171.083 189.31H177.779C178.199 189.31 178.409 189.514 178.409 189.922C178.409 190.342 178.199 190.552 177.779 190.552H171.713V194.944H177.401C177.821 194.944 178.031 195.148 178.031 195.556C178.031 195.976 177.821 196.186 177.401 196.186H171.713V200.758H177.779C178.199 200.758 178.409 200.962 178.409 201.37C178.409 201.79 178.199 202 177.779 202H171.083ZM180.605 202.108C180.365 202.108 180.185 202.006 180.065 201.802C179.945 201.586 179.999 201.34 180.227 201.064L183.089 197.482L180.425 194.17C180.197 193.894 180.143 193.654 180.263 193.45C180.383 193.234 180.563 193.126 180.803 193.126C180.995 193.126 181.151 193.162 181.271 193.234C181.391 193.294 181.505 193.396 181.613 193.54L183.935 196.474L186.275 193.54C186.383 193.396 186.497 193.294 186.617 193.234C186.737 193.162 186.887 193.126 187.067 193.126C187.319 193.126 187.499 193.234 187.607 193.45C187.727 193.654 187.673 193.9 187.445 194.188L184.781 197.482L187.661 201.064C187.877 201.34 187.925 201.586 187.805 201.802C187.685 202.006 187.499 202.108 187.247 202.108C186.923 202.108 186.653 201.97 186.437 201.694L183.917 198.526L181.415 201.694C181.307 201.826 181.193 201.928 181.073 202C180.953 202.072 180.797 202.108 180.605 202.108ZM190.746 205.366C190.266 205.366 190.026 205.12 190.026 204.628V193.864C190.026 193.372 190.26 193.126 190.728 193.126C191.22 193.126 191.466 193.372 191.466 193.864V194.8C191.718 194.272 192.108 193.858 192.636 193.558C193.164 193.246 193.77 193.09 194.454 193.09C195.234 193.09 195.912 193.276 196.488 193.648C197.076 194.008 197.526 194.53 197.838 195.214C198.162 195.886 198.324 196.69 198.324 197.626C198.324 198.55 198.162 199.354 197.838 200.038C197.526 200.71 197.076 201.232 196.488 201.604C195.912 201.976 195.234 202.162 194.454 202.162C193.782 202.162 193.182 202.012 192.654 201.712C192.126 201.412 191.736 200.998 191.484 200.47V204.628C191.484 205.12 191.238 205.366 190.746 205.366ZM194.148 200.992C194.964 200.992 195.618 200.704 196.11 200.128C196.602 199.54 196.848 198.706 196.848 197.626C196.848 196.534 196.602 195.7 196.11 195.124C195.618 194.548 194.964 194.26 194.148 194.26C193.332 194.26 192.678 194.548 192.186 195.124C191.694 195.7 191.448 196.534 191.448 197.626C191.448 198.706 191.694 199.54 192.186 200.128C192.678 200.704 193.332 200.992 194.148 200.992ZM204.462 202.162C203.082 202.162 201.99 201.76 201.186 200.956C200.382 200.14 199.98 199.036 199.98 197.644C199.98 196.744 200.16 195.952 200.52 195.268C200.88 194.572 201.372 194.038 201.996 193.666C202.632 193.282 203.364 193.09 204.192 193.09C205.38 193.09 206.31 193.474 206.982 194.242C207.654 194.998 207.99 196.042 207.99 197.374C207.99 197.746 207.78 197.932 207.36 197.932H201.402C201.45 198.928 201.738 199.69 202.266 200.218C202.794 200.734 203.526 200.992 204.462 200.992C204.858 200.992 205.26 200.944 205.668 200.848C206.076 200.74 206.472 200.554 206.856 200.29C207.132 200.11 207.36 200.074 207.54 200.182C207.732 200.29 207.828 200.458 207.828 200.686C207.84 200.902 207.72 201.094 207.468 201.262C207.072 201.55 206.598 201.772 206.046 201.928C205.506 202.084 204.978 202.162 204.462 202.162ZM204.228 194.17C203.4 194.17 202.746 194.428 202.266 194.944C201.786 195.46 201.504 196.138 201.42 196.978H206.73C206.694 196.09 206.46 195.4 206.028 194.908C205.608 194.416 205.008 194.17 204.228 194.17ZM210.838 202.126C210.346 202.126 210.1 201.874 210.1 201.37V193.864C210.1 193.372 210.334 193.126 210.802 193.126C211.282 193.126 211.522 193.372 211.522 193.864V194.818C211.762 194.266 212.134 193.846 212.638 193.558C213.142 193.258 213.742 193.096 214.438 193.072C214.822 193.036 215.026 193.228 215.05 193.648C215.086 194.068 214.87 194.302 214.402 194.35L214.114 194.386C213.286 194.458 212.656 194.722 212.224 195.178C211.792 195.622 211.576 196.234 211.576 197.014V201.37C211.576 201.874 211.33 202.126 210.838 202.126ZM220.536 202.162C219.504 202.162 218.73 201.892 218.214 201.352C217.698 200.8 217.44 200.008 217.44 198.976V194.386H216.234C215.814 194.386 215.604 194.194 215.604 193.81C215.604 193.438 215.814 193.252 216.234 193.252H217.44V191.182C217.44 190.69 217.686 190.444 218.178 190.444C218.658 190.444 218.898 190.69 218.898 191.182V193.252H221.166C221.586 193.252 221.796 193.438 221.796 193.81C221.796 194.194 221.586 194.386 221.166 194.386H218.898V198.832C218.898 199.516 219.042 200.038 219.33 200.398C219.618 200.746 220.086 200.92 220.734 200.92C220.962 200.92 221.154 200.896 221.31 200.848C221.466 200.8 221.604 200.776 221.724 200.776C221.832 200.764 221.922 200.8 221.994 200.884C222.066 200.968 222.102 201.112 222.102 201.316C222.102 201.46 222.072 201.592 222.012 201.712C221.964 201.832 221.874 201.916 221.742 201.964C221.598 202.012 221.406 202.054 221.166 202.09C220.938 202.138 220.728 202.162 220.536 202.162Z" fill="white"/>
<mask id="mask0_11482_3892" style="mask-type:alpha" maskUnits="userSpaceOnUse" x="40" y="232" width="31" height="31">
<rect x="40.2" y="232.2" width="30" height="30" fill="#C4C4C4"/>
</mask>
<g mask="url(#mask0_11482_3892)">
<path d="M66.6328 246.741V243.508H64.9492V246.741H61.582V248.357H64.9492V251.59H66.6328V248.357H70V246.741H66.6328Z" fill="white"/>
<path d="M50.1285 246.542V250.342H55.5036C54.7189 252.554 52.6061 254.142 50.1285 254.142C46.9859 254.142 44.4285 251.585 44.4285 248.442C44.4285 245.3 46.9859 242.742 50.1285 242.742C51.4908 242.742 52.8018 243.231 53.8202 244.118L56.3168 241.253C54.6068 239.763 52.4104 238.942 50.1285 238.942C44.8902 238.942 40.6285 243.204 40.6285 248.442C40.6285 253.681 44.8902 257.942 50.1285 257.942C55.3668 257.942 59.6285 253.681 59.6285 248.442V246.542H50.1285Z" fill="white"/>
</g>
<mask id="mask1_11482_3892" style="mask-type:alpha" maskUnits="userSpaceOnUse" x="95" y="231" width="30" height="30">
<rect x="95" y="231" width="30" height="30" fill="#C4C4C4"/>
</mask>
<g mask="url(#mask1_11482_3892)">
<path d="M110.494 236.265C108.924 236.51 107.688 237.43 107.035 238.84C106.565 239.863 106.469 240.486 106.469 242.605V244.105H105.118C104.369 244.105 103.719 244.123 103.667 244.144C103.611 244.17 103.528 244.23 103.484 244.282C103.4 244.376 103.4 244.406 103.4 246.358C103.4 248.171 103.408 248.348 103.472 248.429C103.607 248.614 103.659 248.618 105.09 248.618H106.469V253.261V257.903L106.584 258.04L106.7 258.182L108.557 258.195C110.195 258.203 110.43 258.199 110.538 258.139C110.785 258.001 110.773 258.216 110.773 253.196V248.618H112.367C113.515 248.618 113.986 248.606 114.061 248.567C114.28 248.459 114.28 248.442 114.28 246.345V244.406L114.165 244.269L114.049 244.127L112.407 244.114L110.769 244.101L110.781 242.713L110.793 241.329L110.913 241.075C111.044 240.8 111.263 240.615 111.558 240.529C111.642 240.503 112.232 240.478 112.866 240.469C113.503 240.456 114.065 240.439 114.113 240.426C114.165 240.413 114.253 240.353 114.304 240.293L114.4 240.181V238.324C114.4 236.502 114.4 236.467 114.316 236.373C114.272 236.321 114.189 236.261 114.133 236.235C113.974 236.171 110.941 236.197 110.494 236.265Z" fill="white"/>
</g>
<mask id="mask2_11482_3892" style="mask-type:alpha" maskUnits="userSpaceOnUse" x="152" y="235" width="25" height="25">
<rect x="152.765" y="235.765" width="24" height="24" fill="#C4C4C4"/>
</mask>
<g mask="url(#mask2_11482_3892)">
<path d="M176.765 240.323C175.872 240.715 174.921 240.974 173.93 241.1C174.95 240.491 175.728 239.534 176.094 238.381C175.143 238.948 174.093 239.348 172.974 239.572C172.071 238.61 170.784 238.015 169.38 238.015C166.656 238.015 164.463 240.226 164.463 242.936C164.463 243.326 164.496 243.701 164.577 244.058C160.487 243.859 156.867 241.898 154.436 238.912C154.011 239.648 153.762 240.491 153.762 241.399C153.762 243.103 154.64 244.613 155.948 245.488C155.157 245.473 154.382 245.243 153.725 244.882C153.725 244.897 153.725 244.916 153.725 244.936C153.725 247.327 155.43 249.313 157.667 249.77C157.266 249.88 156.83 249.932 156.377 249.932C156.062 249.932 155.744 249.914 155.445 249.848C156.083 251.797 157.892 253.229 160.043 253.276C158.369 254.585 156.243 255.374 153.942 255.374C153.539 255.374 153.152 255.356 152.765 255.307C154.944 256.712 157.527 257.515 160.313 257.515C169.367 257.515 174.317 250.015 174.317 243.514C174.317 243.296 174.309 243.086 174.299 242.878C175.275 242.185 176.096 241.319 176.765 240.323Z" fill="white"/>
</g>
<path fill-rule="evenodd" clip-rule="evenodd" d="M229.526 241.793C229.526 247.338 226.443 251.481 221.899 251.481C220.372 251.481 218.938 250.656 218.446 249.719C218.446 249.719 217.625 252.976 217.452 253.604C216.84 255.826 215.039 258.048 214.9 258.23C214.802 258.357 214.587 258.317 214.564 258.149C214.525 257.866 214.066 255.064 214.607 252.777C214.877 251.629 216.424 245.075 216.424 245.075C216.424 245.075 215.974 244.172 215.974 242.838C215.974 240.743 217.188 239.18 218.7 239.18C219.985 239.18 220.606 240.144 220.606 241.301C220.606 242.594 219.783 244.527 219.358 246.317C219.003 247.817 220.11 249.04 221.589 249.04C224.267 249.04 226.071 245.6 226.071 241.524C226.071 238.427 223.985 236.107 220.189 236.107C215.902 236.107 213.229 239.305 213.229 242.877C213.229 244.109 213.593 244.978 214.163 245.649C214.423 245.958 214.461 246.083 214.365 246.437C214.297 246.698 214.142 247.324 214.077 247.572C213.983 247.931 213.693 248.058 213.369 247.926C211.395 247.12 210.474 244.956 210.474 242.526C210.475 238.511 213.861 233.695 220.577 233.695C225.975 233.695 229.526 237.6 229.526 241.793Z" fill="white"/>
<path d="M286.138 257.531V257.53H286.144V249.461C286.144 245.514 285.294 242.474 280.679 242.474C278.461 242.474 276.972 243.691 276.365 244.845H276.3V242.842H271.925V257.53H276.481V250.257C276.481 248.342 276.844 246.49 279.215 246.49C281.552 246.49 281.587 248.676 281.587 250.38V257.531H286.138Z" fill="white"/>
<path d="M264.364 242.843H268.925V257.531H264.364V242.843Z" fill="white"/>
<path d="M266.642 235.165C265.183 235.165 264 236.348 264 237.807C264 239.265 265.183 240.473 266.642 240.473C268.1 240.473 269.284 239.265 269.284 237.807C269.283 236.348 268.099 235.165 266.642 235.165V235.165Z" fill="white"/>
<defs>
<linearGradient id="paint0_linear_11482_3892" x1="155" y1="408" x2="324.99" y2="-765.73" gradientUnits="userSpaceOnUse">
<stop offset="0.0001" stop-color="#00730C"/>
<stop offset="0.988397" stop-color="#FBF6EE" stop-opacity="0"/>
</linearGradient>
</defs>
</svg>
